<svg xmlns="http://www.w3.org/2000/svg" width="39" height="37.665" viewBox="0 0 39 37.665"><g transform="translate(39 0) rotate(90)"><path d="M28.079,30.618c-5.554-2.567-12.83-5.34-14.491-11.889a1.718,1.718,0,0,0-1.3-.965c-3.067.235-6.179.808-9.272.809-5.692-.929-2.2-7.938,1.333-9.511C11,6.07,16.569.6,24.048.088c2.729-.754,5.723,3.525,4.286,5.929C27.9,6.7,27.709,7.3,28.88,7.61c2.8,1.122,5.366,5.227,2.046,7.229-5.7,3.93,12.556,12.054-2.848,15.78" transform="translate(30.618 4.583) rotate(90)" fill="#ffc43c"/><path d="M32.776,37.223h0c-1.608,0-3.9-.8-7.021-2.456A129.868,129.868,0,0,1,13.07,26.707a29.475,29.475,0,0,0-4.578-2.914C6.9,22.954,5.22,22.2,3.6,21.471c-.552-.248-1.123-.5-1.685-.762A5.4,5.4,0,0,1,.344,18.967a2.905,2.905,0,0,1-.321-1.729c.194-1.524,1.586-3.149,4.139-4.829a38.775,38.775,0,0,1,6.029-3.123c1.327-.158,4.489-1.616,8.151-3.3C24.122,3.316,31.314,0,35.106,0a2.73,2.73,0,0,1,2.213.773,2.745,2.745,0,0,1,.311,2.335,39.923,39.923,0,0,0-2.052,11.785,99.559,99.559,0,0,0,.331,10.73,63.923,63.923,0,0,1,.253,6.677c-.089,2.017-.462,3.312-1.174,4.075A2.853,2.853,0,0,1,32.776,37.223ZM31.11,5.761h0c-2.419,0-9.392,3.863-14.994,6.967-3.389,1.877-6.315,3.5-7.243,3.7-.712.373-1.059.716-1.06,1.049,0,.315.308.633.943.97a50.237,50.237,0,0,1,5.56,3.456c1.614,1.145,3.3,2.46,5.161,4.02,3.49,2.629,5.824,4.291,7.57,5.387,1.824,1.145,3.026,1.679,3.783,1.679a.954.954,0,0,0,.769-.313,3,3,0,0,0,.365-2.031c-.045-.968-.225-2.225-.434-3.681-.693-4.828-1.739-12.124.415-20.238a.824.824,0,0,0-.092-.709.912.912,0,0,0-.741-.254Z" transform="translate(37.665 0) rotate(90)" fill="#272727"/></g></svg>