<svg xmlns="http://www.w3.org/2000/svg" width="298.59" height="290" viewBox="0 0 298.59 290"><g transform="translate(0 21.079)"><path d="M119.76,0h0a51.139,51.139,0,0,0-10.933,1.408A124.363,124.363,0,0,0,94.3,5.757a32.383,32.383,0,0,0-6.137,2.831C86.228,9.713,84.339,11,82.513,12.235c-1.749,1.187-3.557,2.414-5.4,3.5a33.067,33.067,0,0,1-5.8,2.763c-.636.448-1.273.907-1.889,1.351l0,0c-1.4,1.008-2.846,2.05-4.32,3-2.384,1.479-4.906,2.774-7.346,4.026-2.222,1.141-4.52,2.32-6.69,3.629a38.052,38.052,0,0,0-6.171,4.527,43.377,43.377,0,0,1-6.736,5.116c-2.388,1.506-4.919,2.883-7.367,4.214A90.689,90.689,0,0,0,20.537,50.53a34.9,34.9,0,0,0-4.489,3.864,27.139,27.139,0,0,0-3.741,4.8c-1.186,1.986-2.576,3.995-3.921,5.937C4.675,70.5.837,76.042.133,82.49a36.848,36.848,0,0,0,.006,6.341,19.023,19.023,0,0,0,1.4,5.776,12.234,12.234,0,0,0,1.411,2.439,10.5,10.5,0,0,0,1.985,2.013,11.1,11.1,0,0,0,2.634,1.492,14.541,14.541,0,0,0,3.358.876h.006c2.226.452,4.328.879,6.155,2.458a7.957,7.957,0,0,0,2.485,1.048,12.392,12.392,0,0,0,2.91.319c5.668,0,12.813-2.988,18.03-5.17h0c.985-.412,1.916-.8,2.738-1.128,4.762-2.189,9.82-4.837,15.461-8.1,5.032-2.907,10.063-6.027,14.928-9.043l.608-.377c5.353-3.085,9.4-5.521,13.112-7.9,4.73-3.026,8.83-5.905,12.535-8.8,8.931-6.982,15.734-14.235,20.8-22.174,2.614-4.416,4.841-8.559,6.618-12.314a75.234,75.234,0,0,0,4.135-10.476,31.205,31.205,0,0,0,1.464-8.45,15.163,15.163,0,0,0-.329-3.407,10.155,10.155,0,0,0-1.067-2.83,8.534,8.534,0,0,0-1.786-2.192,9.832,9.832,0,0,0-2.54-1.593,14.522,14.522,0,0,0-3.316-.972A23.9,23.9,0,0,0,119.76,0ZM18.287,91.909a12.2,12.2,0,0,1-4.6-.81,8.612,8.612,0,0,1-3.171-2.206,12.321,12.321,0,0,1-2.775-6.321A29.406,29.406,0,0,1,7.6,74.814a39.537,39.537,0,0,1,4.947-7.645c1.126-1.481,2.291-3.012,3.271-4.563a11.191,11.191,0,0,1,1.838-2.052,15.751,15.751,0,0,1,2.23-1.623,43.874,43.874,0,0,1,5.1-2.526,39.77,39.77,0,0,0,5.414-2.729c3.267-2.555,6.662-5.069,10.38-7.686C44.1,43.657,47.594,41.3,51.471,38.77c7.2-4.692,14.666-9.255,21.885-13.668l0,0c5.158-3.153,10.492-6.413,15.7-9.7,3.027-1.346,7.679-3.294,12.655-4.926,6.2-2.033,11.3-3.063,15.177-3.063A14.816,14.816,0,0,1,120.9,7.9a7.042,7.042,0,0,1,2.981,1.61c2.989,3.765,3.287,8.639.887,14.488-2.121,5.167-5.919,10.02-8.731,13.182a68.667,68.667,0,0,1-4.24,5.421c-1.453,1.68-3.045,3.363-4.732,5A106.08,106.08,0,0,1,96.44,56.561c-7.491,5.584-15.718,10.52-23.674,15.294-3.612,2.167-7.346,4.407-10.887,6.639a83.771,83.771,0,0,1-19.628,9.77,67.254,67.254,0,0,1-21.558,3.68c-.7,0-1.415-.012-2.114-.037l-.288,0Z" transform="translate(146.275 107.068) rotate(180)" fill="#39c4ff"/><g transform="translate(63.778 47.717)"><path d="M24.81,0c-.577,0-1.154.02-1.715.06a14.482,14.482,0,0,0-4.063,1.111,19.3,19.3,0,0,0-3.587,2.064A53.268,53.268,0,0,0,9.112,8.9c-1.387,1.38-2.821,2.808-4.282,4.044A18.191,18.191,0,0,0,.845,20.321a26.021,26.021,0,0,0-.772,8.722,42.828,42.828,0,0,0,2.1,10.288A61.4,61.4,0,0,0,6.522,49.4,55.926,55.926,0,0,0,18.574,65.017,54.376,54.376,0,0,1,24.141,58.4a28.728,28.728,0,0,1,6.94-5.163,50.392,50.392,0,0,1-6.314-7.1,36.985,36.985,0,0,1-4.452-7.974,29.232,29.232,0,0,1-2.037-8.749,28.618,28.618,0,0,1,.931-9.425c.229-1.168.634-1.6,1.494-1.6a4.387,4.387,0,0,1,.9.114A28.989,28.989,0,0,0,30,20.126a8.45,8.45,0,0,0,6.45-2.665l.019-.017a11.561,11.561,0,0,1,2.464-1.821,8.4,8.4,0,0,1,3.876-.826c.209,0,.426.005.645.015,2.91.308,5.873.757,8.807,1.333,2.835.557,5.731,1.251,8.606,2.062,2.767.781,5.6,1.694,8.425,2.716,2.7.978,5.485,2.087,8.266,3.3A17.145,17.145,0,0,0,80.663,23.1a22.644,22.644,0,0,0,2.82-1.592,58.214,58.214,0,0,0,5.161-3.972l.214-.178-.756-.325C81.915,14.372,75.518,11.62,69.067,9.41c-3.474-1.19-6.68-2.13-9.8-2.874A76.374,76.374,0,0,0,49.148,4.8,59.877,59.877,0,0,1,38.018,2.433c-2.137-.6-4.347-1.218-6.54-1.673A32.689,32.689,0,0,0,24.81,0ZM12.364,16.3h0a4.474,4.474,0,0,0-.3-.343,1.18,1.18,0,0,1-.387-.593,5.979,5.979,0,0,1,1.914-3.793,5.1,5.1,0,0,1,1.434-.9,3.651,3.651,0,0,1,1.356-.293c.676,0,1.15.267,1.269.713.1.363.013,1.009-.931,2.028A18.841,18.841,0,0,1,12.364,16.3Z" transform="translate(88.858 65.017) rotate(180)" fill="#ffc43c"/></g><g transform="translate(0 0)"><path d="M25.793,64.4l6.237-8.539C21.247,44.736,12.009,31.689,8.628,16.438c-.567-1.924-.213-2.433,1.811-3.02C20.831,10.5,44.564,8.6,54.3,12.88c23.553,9.9,15.425,15.331,35.684,1.736C67.971-.568,50.134-2.454,24.277,2.326,14.569,4.148-1.5,9.669.113,21.853A93.5,93.5,0,0,0,25.793,64.4" transform="translate(0 0)" fill="#ffc43c"/></g><path d="M46.107,23.506C36.556,14.636,25.294,8.022,15.082,0,9.729,1.9,4.523,4.09,0,7.622c11.5,7.009,21.646,15.731,31.505,24.812,4.728-3.039,11.317-4.184,14.6-8.929" transform="translate(84.588 20.894)" fill="#ffc43c"/><path d="M0,8.471A147.21,147.21,0,0,0,27.041,30.208l10.163-6.2A191.3,191.3,0,0,1,7.116,0,19.349,19.349,0,0,0,0,8.471" transform="translate(30.213 61.278)" fill="#ffc43c"/><path d="M0,14.553c.471,1.78-.484,3.787,1.255,4.559,1.907.846,2.407-1.434,3.523-2.3a6.159,6.159,0,0,0,2.344-5.186c-1.06-4.805,6.7-3.9,7.437-.56,1.244,3.334-.234,13.791,5.382,7.091C27.515,12,22.3-2.979,11.818.524,5.546,2.452.352,7.946,0,14.553" transform="translate(70.596 33.614)" fill="#3e5cff"/></g><g transform="translate(11.134)"><path d="M70.249,0a15.647,15.647,0,0,0-3.562.411,16.827,16.827,0,0,0-3.3,1.153,22.791,22.791,0,0,0-5.815,4.044A38.59,38.59,0,0,0,52.76,11.16,63.442,63.442,0,0,0,48.9,17.245a6.954,6.954,0,0,1-1.627,3.135,3.44,3.44,0,0,1-2.526.972,9.283,9.283,0,0,1-3.166-.7A76.714,76.714,0,0,0,26.1,18.665a33.783,33.783,0,0,0-7.961.873,26.258,26.258,0,0,0-3.811,1.222,24.109,24.109,0,0,0-3.638,1.862A19.221,19.221,0,0,0,6.129,27.2a17.223,17.223,0,0,0-2.467,5.3,21.118,21.118,0,0,0-.7,5.806,30.5,30.5,0,0,0,.728,6.087A53.123,53.123,0,0,0,8.12,56.507a90.748,90.748,0,0,0,6.206,10.55c1.81,2.655-.64,5.149-3.01,7.561a15.152,15.152,0,0,0-3.072,3.806,38.663,38.663,0,0,0-7.5,14.511c-1.212,4.9-.938,9.386.79,12.979a13.663,13.663,0,0,0,2.57,3.661A15.172,15.172,0,0,0,7.98,112.4a25.853,25.853,0,0,0,11.889,2.462c.77,0,1.57-.022,2.378-.066,2.3-.112,4.575-.315,6.766-.6,2.262-.3,4.51-.7,6.681-1.193a6.853,6.853,0,0,1,1.373-.211,1.151,1.151,0,0,1,1,.446,5.276,5.276,0,0,1,.692,1.578c.974,2.907,2.032,5.655,3.146,8.168a58.148,58.148,0,0,0,4.637,8.617c4.24,6.364,8.9,9.59,13.85,9.59a13.259,13.259,0,0,0,5.415-1.234,28.278,28.278,0,0,0,5.566-3.032,35.089,35.089,0,0,0,4.823-4.086A46.706,46.706,0,0,0,80.348,128c1.2-1.6,2.393-3.375,3.545-5.279.658-1.109,1.053-1.573,1.793-1.573a6.086,6.086,0,0,1,1.685.381c2.65.745,6.666,1.83,10.93,2.65,2.108.405,4.138.719,6.034.932a54.574,54.574,0,0,0,6.06.362,35.175,35.175,0,0,0,6.673-.591,22.02,22.02,0,0,0,5.953-2.009,16.188,16.188,0,0,0,4.827-3.782,17.6,17.6,0,0,0,3.3-5.908,28.412,28.412,0,0,0,1.084-6.257,30.57,30.57,0,0,0-.273-6.149,37.386,37.386,0,0,0-1.4-6.015,49.528,49.528,0,0,0-2.312-5.853,81.458,81.458,0,0,0-6.452-11.116c-2.463-3.638-5.081-7.1-7.392-10.15-.928-1.225-.025-2.3.848-3.34a6.8,6.8,0,0,0,.983-1.373,39.607,39.607,0,0,0,3.461-5.81c.67-1.287,1.362-2.617,2.13-3.857a19.329,19.329,0,0,1,2.656-3.458,22.527,22.527,0,0,0,2.453-10.1,17.976,17.976,0,0,0-2.445-9.219,15.107,15.107,0,0,0-5.576-5.435,18.431,18.431,0,0,0-8.7-2.238,9.138,9.138,0,0,0-2.813-.367,41.119,41.119,0,0,0-5.955.632l-.176.027a38.491,38.491,0,0,1-5.482.6,7.413,7.413,0,0,1-1.9-.206,2.8,2.8,0,0,1-1.334-.721A52.676,52.676,0,0,0,85.51,9.018a26.683,26.683,0,0,0-5.359-5.445A20.269,20.269,0,0,0,76.913,1.6,18.752,18.752,0,0,0,73.263.281,16.667,16.667,0,0,0,70.249,0Zm-.3,30.922h0c-2.987,0-5.386-1.187-9.36-3.153-2.19-1.084-4.917-2.433-8.492-3.95a5.277,5.277,0,0,1,.12-3.325,16.518,16.518,0,0,1,1.977-4.029,34.368,34.368,0,0,1,6.615-7.391,22.841,22.841,0,0,1,3.662-2.548,8.292,8.292,0,0,1,3.2-1.1l.3,0a14.116,14.116,0,0,1,3.668.467,12.606,12.606,0,0,1,3.1,1.3,14.138,14.138,0,0,1,2.605,1.985,18.691,18.691,0,0,1,2.178,2.52c2.651,3.651,4.348,8.324,5.846,12.447l.042.115c.384,1.073-.005,1.738-1.3,2.222-3.854,1.678-6.5,2.723-8.578,3.388a18.458,18.458,0,0,1-5.589,1.053ZM19.721,63.969h0a1.3,1.3,0,0,1-.74-.211,57.267,57.267,0,0,1-5.537-7.5,47.923,47.923,0,0,1-4.108-8.218,28.771,28.771,0,0,1-1.9-8.09,14.793,14.793,0,0,1,1.087-7.116,11.828,11.828,0,0,1,5.731-5.772A20.169,20.169,0,0,1,19.236,25.4a35.142,35.142,0,0,1,6.576-.642c.729.391,2.9.58,5.42.8a70.977,70.977,0,0,1,7.189.87c2.578.508,4.1,1.2,4.665,2.12a1.753,1.753,0,0,1,.069,1.65,46.492,46.492,0,0,0-2.294,8.31,51.182,51.182,0,0,1-2.054,7.727,18.161,18.161,0,0,1-1.73,3.446A13.507,13.507,0,0,1,34.5,52.622c-1.535.629-3.867,2.835-6.336,5.17-3.21,3.037-6.53,6.176-8.445,6.177ZM45.075,44.54h0a1.143,1.143,0,0,1-.922-.343,1.626,1.626,0,0,1-.184-1.34,25.493,25.493,0,0,0,.915-3.347,48.347,48.347,0,0,1,1.777-6.266,9.009,9.009,0,0,1,1.274-2.364,2.137,2.137,0,0,1,1.618-.94,1.879,1.879,0,0,1,.828.209,17.544,17.544,0,0,0,3.936,1.625c3.139,1.055,6.7,2.25,6.2,4.237-.491.231-1.647,1-3.111,1.978-1.945,1.3-4.364,2.91-6.656,4.23a31.293,31.293,0,0,1-3.227,1.656,6.843,6.843,0,0,1-2.448.666Zm58.117-13.746h0a28.282,28.282,0,0,1,2.834-.145,23.953,23.953,0,0,1,3.886.306,17.9,17.9,0,0,1,3.487.925,12.492,12.492,0,0,1,2.908,1.555,9.036,9.036,0,0,1,2.152,2.2,8.355,8.355,0,0,1,1.416,4.38,14.161,14.161,0,0,1-1.126,5.806c.27.56.119,1.619-.437,3.062a27.852,27.852,0,0,1-2.361,4.545,32.692,32.692,0,0,1-3.9,5.109c-1.442,1.5-2.656,2.293-3.509,2.293a1.1,1.1,0,0,1-.916-.463c-.516-.463-1.041-.925-1.549-1.371A38.51,38.51,0,0,1,99.54,52.27a13.765,13.765,0,0,1-1.948-4.032,13.162,13.162,0,0,1-.43-4.9,33.363,33.363,0,0,0-.927-5.688,20.989,20.989,0,0,1-.565-3.129,3.056,3.056,0,0,1,.532-2.2c.847-1.062,2.805-1.536,6.348-1.536C102.758,30.789,102.974,30.791,103.192,30.794ZM87.516,43.09h0A5.9,5.9,0,0,1,84.6,41.768c-1.1-.765-2.244-1.729-3.253-2.58-.787-.664-1.466-1.236-1.943-1.559a1.215,1.215,0,0,1,.06-1.026,2.65,2.65,0,0,1,1.5-.991,19.6,19.6,0,0,1,2.326-.587,9.548,9.548,0,0,0,2.681-.8,1.934,1.934,0,0,1,.51-.075c.674,0,1.154.441,1.466,1.349a12.49,12.49,0,0,1,.46,2.649,5.949,5.949,0,0,0,.32,1.767c.17,1.408.047,2.359-.366,2.825a1.072,1.072,0,0,1-.841.35ZM56.291,47c2.5-1.21,5.088-2.461,7.73-3.983a10.7,10.7,0,0,1,2.866-1.613,8.168,8.168,0,0,1,2.779-.492,9.4,9.4,0,0,1,3.035.528,15.726,15.726,0,0,1,2.958,1.39,51.737,51.737,0,0,1,5.757,4.191,41.1,41.1,0,0,0,6.6,4.624,8.267,8.267,0,0,1,1.354,2.507A12.326,12.326,0,0,1,89.952,57a38.446,38.446,0,0,1-.108,6.221,33.951,33.951,0,0,0-.061,6.413,29.616,29.616,0,0,0-.443,3.938c-.245,3.543-.5,7.207-3.628,9.184-1.4.932-2.82,1.886-4.19,2.809-3.275,2.206-6.662,4.487-10.065,6.6a111.966,111.966,0,0,1-10.518,5.865,5.79,5.79,0,0,1-2.209.441h0c-3.453,0-6.813-3.022-10.063-5.944a28.614,28.614,0,0,0-6.05-4.615,7.653,7.653,0,0,1-1.9-2.645,10.269,10.269,0,0,1-.776-3.108,32.547,32.547,0,0,1,.31-6.86,37.944,37.944,0,0,0,.366-5.148,31.9,31.9,0,0,1-.259-5.015,20.259,20.259,0,0,1,.544-4.126,14.4,14.4,0,0,1,3.159-6.151,21.6,21.6,0,0,1,5.356-4.294c2.076-1.247,4.407-2.375,6.875-3.569h0ZM33.76,79.089h0c-1.373,0-3.748-2.511-5.844-4.726-.851-.9-1.655-1.749-2.343-2.382a1.91,1.91,0,0,1-.692-1.58c.068-.944.831-2.044,2.331-3.364A46.874,46.874,0,0,1,31.563,63.8a24.923,24.923,0,0,0,2.905-2.162l.073,0a.934.934,0,0,1,.746.338c.408.483.553,1.484.444,3.062-.1,1.378-.373,3.022-.618,4.473a19,19,0,0,0-.462,4.133,17.94,17.94,0,0,1,.266,3.452,2.869,2.869,0,0,1-.469,1.679.868.868,0,0,1-.687.312Zm65.268-7.617h0a.727.727,0,0,1-.547-.242c-.524-.557-.69-2.074-.523-4.774H98c-.215-2.388-.055-3.838.489-4.434a.932.932,0,0,1,.715-.313c.672,0,1.628.588,2.84,1.749,1.406,1.358,2.076,2.127,2.075,2.825s-.657,1.327-1.849,2.47l-.005,0c-1.466,1.826-2.526,2.714-3.24,2.714Zm11.38,47.634A49.9,49.9,0,0,1,99.2,117.684a68.338,68.338,0,0,1-9.923-3.127c-.9-2.8.775-7.33,2.394-11.714a39.182,39.182,0,0,0,2.359-7.864,60.37,60.37,0,0,1,1.439-7.472,18.717,18.717,0,0,1,2.045-4.917c1.693-2.758,4.145-4.785,8.206-8.144l.01-.008c.742-.614,1.51-1.249,2.346-1.948a2.007,2.007,0,0,1,1.2-.576c.394,0,.774.236,1.311.815,2.212,2.469,4.115,4.747,5.819,6.966a76.141,76.141,0,0,1,5.242,7.7,49.314,49.314,0,0,1,3.944,8.281,33.438,33.438,0,0,1,1.924,8.713,17.185,17.185,0,0,1-1.5,7.044,11.839,11.839,0,0,1-3.745,4.533C119.418,118.049,115.426,119.106,110.408,119.106Zm-91.939-8.65h0a27.311,27.311,0,0,1-4.977-.415,14.86,14.86,0,0,1-4.328-1.46,9.649,9.649,0,0,1-3.278-2.829,10.857,10.857,0,0,1-1.827-4.521,11.109,11.109,0,0,1,.7-4.31,43.27,43.27,0,0,1,2.437-5.9A56.121,56.121,0,0,1,14.771,79.33a18.186,18.186,0,0,1,3.01-2.809,4.832,4.832,0,0,1,2.644-1.057l.095,0c2.19,2.34,4.089,4.2,5.765,5.839s3.126,3.06,4.34,4.454a20.65,20.65,0,0,1,3.011,4.386,22.446,22.446,0,0,1,1.884,5.748,60.856,60.856,0,0,1,.959,8.542c.308,1.557.256,2.423-.181,2.988a4.58,4.58,0,0,1-2.463,1.152c-.607.1-1.244.214-1.918.332l-.009,0a80.069,80.069,0,0,1-13.436,1.548Zm61,.458h0a1.922,1.922,0,0,1-.636-.113c-1.621-.908-3.347-1.672-5.017-2.411-1.589-.7-3.231-1.429-4.767-2.275a20.458,20.458,0,0,1-4.3-3.063,113.406,113.406,0,0,1,12.095-7.329c2.631-1.448,5.351-2.945,7.937-4.548a.865.865,0,0,1,.627-.263,1.072,1.072,0,0,1,.988.661c-.18.705-.391,1.886-.658,3.381a89.6,89.6,0,0,1-2.243,10.174,17.408,17.408,0,0,1-1.75,4.114,4.742,4.742,0,0,1-1.067,1.225,1.988,1.988,0,0,1-1.209.446Zm-35.455-5.19h0c-1.663,0-1.924-2.324-2.176-4.572a15.575,15.575,0,0,0-.505-2.929,1.8,1.8,0,0,1,.454-.9,1.008,1.008,0,0,1,.718-.273c1.365,0,3.525,2.029,5.261,3.66a17.281,17.281,0,0,0,2.036,1.761,3.271,3.271,0,0,1-2.367,1.832,9.019,9.019,0,0,0-.981.39,4.636,4.636,0,0,1-2.439,1.031Zm17.2,27.607h0c-.259,0-.528-.006-.8-.019a11.036,11.036,0,0,1-3.33-.538,10.731,10.731,0,0,1-2.808-1.419,13.46,13.46,0,0,1-2.348-2.13,19.415,19.415,0,0,1-1.949-2.672,35.664,35.664,0,0,1-2.946-6.288c-.811-2.192-1.487-4.435-2.084-6.413v0l0-.008c-.126-.417-.245-.812-.364-1.2-.286-2.578,2.551-3.268,5.294-3.935a11.513,11.513,0,0,0,4.057-1.48,9.316,9.316,0,0,1,1.154-.071,11.168,11.168,0,0,1,3.038.444,18.312,18.312,0,0,1,3.019,1.169,57.89,57.89,0,0,1,6.006,3.547c1.474.951,3,1.935,4.5,2.765a21.166,21.166,0,0,0,4.515,1.943,1.929,1.929,0,0,1,.758,1.515A6.492,6.492,0,0,1,76,121.652a24.853,24.853,0,0,1-2.35,3.565,50.037,50.037,0,0,1-4.9,5.434,11.985,11.985,0,0,1-3.271,1.958,11.711,11.711,0,0,1-4.262.723Z" transform="translate(132.279 144.364) rotate(180)"/><path d="M3.612,0C-6.7,3.02,7.73,17.778,13.7,18.443,21.463,17.99,6.381,1.318,3.612,0" transform="translate(111.611 141.82)"/><path d="M0,14.7C2.9,31.989,15.135,4.5,5.72.107-.515-1.239.931,10.422,0,14.7" transform="translate(65.504 170.439)"/><path d="M8.831,0C-16.56-.132,20.79,15.592,21.623,4.006,20.279-.818,12.836.525,8.831.187c0-.062,0-.124,0-.186" transform="translate(254.067 38.476)"/><path d="M4.2,8.586c3.243-1.377,20.975.112,18.055-6.38C18.96-5.124-10.8,8.124,4.2,8.586" transform="translate(142.456 23.849)"/><path d="M0,17.277c.28,4.967,5.627-.07,6.541-2.213,1.741-4,4.473-12.712-.346-15.064C-1.4,1.844,1.55,11.419,0,17.277" transform="translate(30.844 179.024)"/><path d="M.008,12.466c-.151,2.74,1.924,2.754,3.7,2.177C8.083,14.667,17.514.287,10.556,0,9.41.537,8.4,1.273,7,.719,2.479,2.248.667,8.431.008,12.466" transform="translate(110.657)"/><path d="M.291.285c-.312,3.465-1.1,3.854,2.6,5.286C27.2,17.08,21.378-2.558.291.285" transform="translate(268.695 69.956)"/><path d="M.44,3.547c-.819,4.689,5.523,8.471,9.771,7.4C15.171,8.883,10.743,1.212,6.458.7,3.5-.057-1.513-1.221.44,3.547" transform="translate(188.563 100.482)"/><path d="M.481,7.662c-.955,1.808.817,2.306.676,3.6C-.929,12.42-.051,19.879,2.639,18.2,12.775,12.4,3.757-12.308.481,7.662" transform="translate(50.559 215.274)"/><path d="M15.151,7.579c3.128.629,4.677-4.59,1.69-5.683C12.7,1.02,2.931-1.6,0,1.4,2.328,6.06,9.936,6.834,15.151,7.579" transform="translate(154.539 69.32)"/><path d="M0,10.112c2.847,3.2,10.555-2.016,13.787-3.735,3.03-1.448,2.933-6.94-1.158-6.33C7.425,1.528,2.307,5.082,0,10.112" transform="translate(233.399 6.042)"/><path d="M6.553,7.545c6.38.836,13.688-4.584,4.054-7.289C4-1.714-7.234,8.358,6.553,7.545" transform="translate(171.392 47.697)"/><path d="M10.134,3.269c.6-3.276-5.454-4.4-6.545-1.929-1,4.122-4.283,8.885-3.457,12.97,4.933-.105,8.8-6.651,10-11.04" transform="translate(7.949 140.866)"/><g transform="translate(4.094 276.782)"><path d="M.035,8.6c1.732,10.349,9.159.88,8.327-4.962C5.892-4.53-.531,2.8.035,8.6" transform="translate(0 0)"/></g><path d="M8.82,11.735C9.65,7.936,4.137-2.9.165.732c-1.151,5.983,4,10.4,6.612,15.26,2.093,1.252,1.537-3.083,2.043-4.258" transform="translate(103.344 187.292)"/><path d="M0,10.708c.7,5.627,10.322-4.347,10.835-7.039.561-1.5.37-2.39-1-3.148C4.2-2.21.766,6.479,0,10.708" transform="translate(9.221 196.195)"/><path d="M7.9,9.975C8.444,5.42,4.2-3.423.133,1.4c-1.226,4.417,6.418,19.8,7.77,8.58" transform="translate(97.938 241.985)"/><path d="M0,13.348c2.826,4.117,6.636-2.8,7.7-5.4C9.753,4.7,5.84-3.43,2.546,1.606,1.568,5.552.907,9.342,0,13.348" transform="translate(22.258 241.349)"/><path d="M7.569,7.941c5.793.3,6.69-7.418.981-7.941C5.806.268-1.123.935.156,4.928c1.582,2.937,4.527,2.6,7.413,3.013" transform="translate(208.278 25.439)"/><path d="M0,0C.537,6.09,7.658,8.591,13.136,8.581c4.224.19,4.687-5.367.392-5.665C8.8,2.35,4.543,3.068,0,0" transform="translate(252.16 83.311)"/><path d="M9.795,6.966c.7-.059,2.593.138,2.773-1.189,3.89-6.014-7.7-6.629-11.366-5C-3.309,5.354,6.063,7.263,9.795,6.966" transform="translate(213.684 80.768)"/><path d="M9.529,5.925c.187-3.418-6.589-8.918-8.36-3.916C.549,4.28-1.166,6.7,1.258,8.169c3.091,2.856,8.557,3.121,8.271-2.244" transform="translate(138.004 129.419)"/><path d="M.14,5.66c.555,13.98,2.2,13.268,5.924.164C8.118-1.635-1.242-2.184.14,5.66" transform="translate(75.679 232.127)"/><path d="M.27,4.576c-.83,3.791.108,5.964,4.822,6.872,3.051-.01,1.469-4.863,2.22-6.89C7.449-.795-1.359-2.21.27,4.576" transform="translate(39.429 273.147)"/><path d="M8.877,6.208c10.118-.13,5.21-11-7.368-3.67C-3.891,6.205,6.783,5.669,8.86,6.36c.006-.05.012-.1.017-.152" transform="translate(167.258 4.134)"/><path d="M12.13,3.554C13.615-3.39-.129,1.366,0,4.962c.02.368.8,1.073,1,1,2.415-.892,4.745-.058,7.1.2,2.142.471,5.238.288,4.03-2.606" transform="translate(271.556 14.309)"/><path d="M6.194,6.042c11.585-1.548-.2-9.208-5.188-4.568C-2.505,4.924,4.139,5.1,6.194,6.042" transform="translate(215.274 56.283)"/><path d="M.029,3.305C.7,5.04.613,10.442,3.2,10.165c3.919-.748,4.015-7.6,1.281-9.759C2.325-.615-.307.267.029,3.305" transform="translate(88.717 142.774)"/><path d="M7.807,7.632c3.6-1.61.819-5.211-1.352-6.792C4.8-.919-1.614.175.38,3.274,2.613,5.1,5.23,6.1,7.807,7.632" transform="translate(137.686 95.713)"/><path d="M8.1,3.007C9.2-1.828,3.781.519,1.248.931-4.174,4.449,9.942,9.988,8.1,3.007" transform="translate(229.901 40.702)"/><path d="M.2,5.973C-.182,13.237,6.711,5.13,4.729,1.7,2.9-2.9-.9,2.979.2,5.973" transform="translate(84.583 271.875)"/><path d="M0,.595C1.117.464,2.191.9,2.862.344A2.461,2.461,0,0,0,0,.595" transform="translate(170.12 120.833)"/><path d="M0,10.078c-.036,6.049,4.435,9.349,9.264,10.515,6.264,1,9.148-7.984,7.965-13.168C13.929-4.777.735-.55,0,10.078" transform="translate(61.688 61.371)"/></g></svg>