<svg xmlns="http://www.w3.org/2000/svg" width="88.104" height="69.642" viewBox="0 0 88.104 69.642"><g transform="translate(0)"><path d="M3125.127,220.316l2.722,16.162,2.552,17.182,2.042,7.655,12.759-2.041,23.817-7.315,24.667-4.763h7.655l-4.423-14.971-4.083-21.776h-5.444l-9.527,12.589-3.062,9.187-8.166-10.207-6.8-10.548-4.594,8.846-.85,13.44h-8l-8.846-8.336Z" transform="translate(-3117.588 -194.216)" fill="none" stroke="#707070" stroke-width="1"/><g transform="translate(0 0)"><path d="M16.51,69.642a9.366,9.366,0,0,1-2.694-.347,4.652,4.652,0,0,1-2.005-1.159,4.166,4.166,0,0,1-.967-1.611,6.911,6.911,0,0,1-.311-2.32A161.26,161.26,0,0,0,7.369,45.451c-.276-1.314-.56-2.673-.833-4.009a18.027,18.027,0,0,1-.5-5.716,23.835,23.835,0,0,0-.244-4.764,6.8,6.8,0,0,0-.705-2.019A4.717,4.717,0,0,0,3.68,27.366a4.362,4.362,0,0,1-3.066-3,16.066,16.066,0,0,1-.573-4.539v0C.029,19.448.017,19.094,0,18.746a4.459,4.459,0,0,1,1.261-3.039,3.687,3.687,0,0,1,2.564-.914A7.689,7.689,0,0,1,8.1,16.3a8.138,8.138,0,0,1,1.726,1.634,5.818,5.818,0,0,1,1.039,2,5.568,5.568,0,0,0,1.213,3.5,9.051,9.051,0,0,0,3.244,1.944c4.369,2.952,8.776,6,13.039,8.957l.683.473c.3.207.629.476.982.762.97.784,2.069,1.672,2.884,1.672.715,0,1.1-.681,1.179-2.083.364-2.973.74-6.048,1.377-9.02a40.5,40.5,0,0,1,1.182-4.39,29.975,29.975,0,0,1,1.774-4.244,1.416,1.416,0,0,0,.031-1.382,5.1,5.1,0,0,0-.9-1.168c-.174-.186-.338-.361-.48-.538a5.36,5.36,0,0,1-1.3-2.938,5.851,5.851,0,0,1,.456-3.057A4.749,4.749,0,0,1,37.763,6.5,4.1,4.1,0,0,1,40.2,5.728a5.169,5.169,0,0,1,1.068.116c0,.026,0,.052,0,.078a6.637,6.637,0,0,1,.764-.042,9.158,9.158,0,0,1,3.3.647,5.057,5.057,0,0,1,2.487,1.888,2.748,2.748,0,0,1,.418,1.4,3.6,3.6,0,0,1-.432,1.689,11.728,11.728,0,0,1-1.029,1.312c-.721.835-1.4,1.624-1.3,2.456a2.481,2.481,0,0,0,1.237,1.595l1.205,1.992c2.558,4.229,4.406,7.285,5.731,9.193a14.375,14.375,0,0,0,1.667,2.086,1.861,1.861,0,0,0,1.186.655c.863,0,1.462-1.316,2.454-3.495a54.317,54.317,0,0,1,3.088-6.011,40.862,40.862,0,0,1,2.508-3.67,41.987,41.987,0,0,1,3.412-3.913l.011-.01c1.514-1.292,2.429-2.072,2.493-3.042a2.321,2.321,0,0,0-.344-1.265A9.466,9.466,0,0,0,68.872,7.72,11.438,11.438,0,0,1,68.024,3.9a4.176,4.176,0,0,1,.644-2.464A3.679,3.679,0,0,1,71.876,0a9.815,9.815,0,0,1,4.63,1.359,12.8,12.8,0,0,1,2.232,1.586A11.724,11.724,0,0,1,80.6,5.036,4.463,4.463,0,0,1,81.75,8.568a4.82,4.82,0,0,1-.6,1.713,7.384,7.384,0,0,1-1.254,1.6,1.455,1.455,0,0,0-.665,1.122,8.972,8.972,0,0,0-.073,2.259,46.927,46.927,0,0,0,1.158,6.84c1.2,5.228,3.027,11.31,4.24,15.334v0c.526,1.747.942,3.127,1.131,3.858.125.417.294.925.489,1.513v0c1.1,3.3,2.928,8.823,1.246,11.2a2.519,2.519,0,0,1-.982.826,3.662,3.662,0,0,1-1.517.319c-1.145-.069-2.327-.1-3.512-.1-12.026,0-24.206,3.535-35.985,6.954-2.758.8-5.609,1.628-8.375,2.383a52.07,52.07,0,0,0-6.12,1.823C26.375,67.741,20.7,69.641,16.51,69.642ZM13.3,31.588h0a1.1,1.1,0,0,0-.88.411c-.506.61-.627,1.859-.332,3.425l-.064,0c.285,4.384.967,8.8,1.626,13.078.7,4.529,1.422,9.213,1.676,13.874.06,1.357.215,2.576,1.43,2.576a3.31,3.31,0,0,0,1.084-.226c5.236-1.456,10.513-3.146,15.617-4.78,6.254-2,12.721-4.073,19.167-5.732,3.47-.893,6.658-1.6,9.745-2.158a98.571,98.571,0,0,1,9.938-1.309c.413-.109.957-.2,1.533-.288,1.663-.266,3.733-.6,4.463-1.714a1.887,1.887,0,0,0,.184-1.564c-.5-1.65-1.053-3.32-1.593-4.935a83,83,0,0,1-2.928-10.2,19.562,19.562,0,0,1-.61-5.658,29.017,29.017,0,0,0-.32-4.629,7.218,7.218,0,0,0-.6-1.9,3.746,3.746,0,0,0-1.127-1.386,46.777,46.777,0,0,0-6.373,10.268A93.378,93.378,0,0,0,60.6,40.136,2.614,2.614,0,0,1,58.367,41.4c-2.61,0-5.9-3.453-7.195-4.937-.968-.535-2.271-3.4-3.651-6.439-1.625-3.576-3.305-7.274-4.528-7.274a.747.747,0,0,0-.591.353,3.535,3.535,0,0,0-.492,1.141c-1.077,1.717-1.231,5.163-1.394,8.812a41.174,41.174,0,0,1-.843,7.983,6.524,6.524,0,0,1-1.276,2.69,3.034,3.034,0,0,1-1,.759,3.071,3.071,0,0,1-1.3.27,5.174,5.174,0,0,1-1.536-.262,52.682,52.682,0,0,1-6.892-3.656c-2.214-1.368-4.4-2.873-6.515-4.328-1.81-1.246-3.681-2.533-5.558-3.728a3.923,3.923,0,0,0-2.3-1.2Z" transform="translate(0 0)" fill="#272727"/></g></g></svg>