<svg xmlns="http://www.w3.org/2000/svg" width="250.712" height="248.008" viewBox="0 0 250.712 248.008"><g transform="translate(-9.288)"><g transform="translate(0 39.22)"><path d="M11.074,175.772c2.938,5.38,10.365,7.141,16.122,6.378,5.459-.326,12.385,3.792,16.056-2.464,6.191-9.541,5.462-21.781,7.865-32.6.994-15.806,2.951-31.5,3.86-47.328,1.494-29.339,7.36-58.167,10.012-87.384-.233-2.185,3.514-3.3,1.82-5.437-1.822-1.358-.2-4.556-3.268-4.151C50.924,1.956,38.279,1.766,25.7.425c-2.6.371-8.242-1.631-9.562.8-.559,2.634-3.246-.355-4.424,2.112C6.452,14.729,6.613,28.318,5.62,40.712c-1.008,9.08-2.24,18.123-2.479,27.272-.74,28.247-6.5,57.174-.289,85.078,2.019,4.061,4.889,18.694,8.222,22.709" transform="translate(122.684 193.874) rotate(180)" fill="#2035ee"/><path d="M0,20.858C1.636,48.634,19.424,35.263,28.479,43.8c2.5,1.573,3.284-2.131,2.1-3.82,5.614-.987,11.617-2.637,14.11-8.35C52.467,18.695,41.794-6.59,24.736,1.6c-3.9,2.463-8.133.378-12.383,1.364C3.561,4.058.1,13.152,0,20.858" transform="translate(172.489)" fill="#ff3f56"/><path d="M30.415,8.928c4.49-.715,24.148,2.234,23.3-4.16C39.772-.182,23.6,3.444,9.017.365,5.683-.669-2.34.353.659,5.233c8.9,4.755,20.1,3.63,29.756,3.694" transform="translate(203.723 79.913)" fill="#3bc5ff"/><path d="M20.566,9.286c3.98,0,20.657-1.213,11.165-6.526C22.27.771,12.3,2.319,2.9.121,1.01-.408-.387.857.1,2.741c3.177,7.243,14.057,5.31,20.469,6.545" transform="translate(193.312 93.983)" fill="#3bc5ff"/><path d="M9.975,7.316C14.03,6.966,19.98,4.779,14.2.951,11.145-.454-1.952-1,.248,4.379A23.13,23.13,0,0,0,9.975,7.316" transform="translate(243.398 50.649)" fill="#3bc5ff"/><path d="M10.111.129C6.807.141.912-.39,0,3.609.1,4.482.7,5.2,1.511,4.97c5.2-1.06,10.107,1.559,15.328.8,1.955,0,1.448-2.06,1.213-3.389C17.557-.456,11.875-.05,10.111.129" transform="translate(120.433 22.511)" fill="#3bc5ff"/><path d="M8.065.026C-7.852.7,3.242,7.254,11.922,6.723,21.586,4.7,13.028-.409,8.065.026" transform="translate(234.113 31.797)" fill="#3bc5ff"/><path d="M7.756.075C5.119.423-1.614.593.356,4.427c1.8,3.591,13.024,2.987,11.953-1.55C11.338.727,9.894-.3,7.756.075" transform="translate(126.623 50.087)" fill="#3bc5ff"/><path d="M4.967,5.346c1.818-.186,5.92-1.456,5.041-3.539C5.792-3.082-6.957,3.271,4.967,5.346" transform="translate(174.74 83.571)" fill="#3bc5ff"/><path d="M4.784,1.308C4.076.052,2.128.335.871,0a1.5,1.5,0,0,0,.389,2.848c2.042.72,3.351,1.1,3.523-1.54" transform="translate(99.892 201.472)" fill="#ffc339"/><path d="M3.36,0,0,1.4c1.085.011,3.6.1,3.36-1.4" transform="translate(54.87 27.013)" fill="#3bc5ff"/><path d="M.016,0C.107.377.2.754.288,1.126.2.747.106.373.016,0" transform="translate(58.236 24.481)" fill="#3bc5ff"/><path d="M.844.281,0,0,.844.281" transform="translate(39.675 25.887)" fill="#3bc5ff"/></g><g transform="translate(9.288 0)"><g transform="translate(0 17.517)"><path d="M42.827,53.116c-1.256,8.61,3.692,44.166-3.907,45.626C34.871,100.1,27.175,102.61,25.779,96.8c-2.024-8.77-2.441-18.758-12.51-21.919C-.684,70.228,3.2,99.51.6,107.538c-.778,9.141-1.906,19.694,4.729,27.05,7.21,7.623,19.309,5.031,28.667,7.9,3.539,1.56.75,6.874.98,9.911-1.519,6.808.421,13.425.7,20.252.725,17.49-1.269,34.94-.519,52.416-.568,3.407,3.682,8.449,5.468,3.059.31-6.4.375-12.821.551-19.23.952-12.45,1.907-25.462,1.2-38.151.591-2.739-.048-5.439-.5-8.089-1.133-5.847.786-11.6.3-17.418-1.678-11.7-18.575-8.4-27.185-11.288-11.548-2.441-9.294-17.417-8.459-26.294,1.841-9.063,1.209-18.439,3.18-27.439.253-.982.9-1.317,1.755-.942,10.99,3.322,5.5,17.209,12.3,23.867,6.6,4.969,18.68,1.942,23.575-4.52,5.521-8.17,1.852-19.044,2.946-28.067,1.25-12.026-4.254-48.621,4.047-54.753,6.514-5.414,13.1-14.186,22.438-9.5C82.21,8.562,87,13.057,88.523,18.832c2.659,9.321,5.624,18.7,5,28.535C91.951,62.395,90.635,77.24,91.07,92.38c.825,4.238-2.389,15.43,2.593,16.774,4.461,7.361,12.978,9.7,21.243,8.877,9.067,1.206,13.009-8.592,15.053-15.721,1.571-5.336,4.571-10.062,6.88-15.1,2.118-3.825,7-1.994,8.394,1.121,2.562,6.734.838,14.536,1.052,21.642-2.294,7.239,3.175,30.282-7.758,29.921-14.034.858-28.381.467-42.079,3.774-8.316,1.652-4.359,15.724-7.134,22.081-3.15,16.9-1.9,34.091-2.31,51.184.356,3.474-2.911,11.275,2.764,11.03,4.033-2.236,2.5-8.677,3.4-12.625,0-19,.912-37.883,4.428-56.595.908-2.734-1.256-8.07,1.176-9.686,12.847-3.768,26.423-2.565,39.662-3.611,12.324.484,13-14.029,13.15-23.172-.371-13.727,7.24-39.9-12.5-42.472-7.859.365-13.806,21.035-16.8,27.555-2.745,7.215-12.681,4.52-18.524,3.175-7.816-2.266-6.625-14.842-6.331-21.489-.382-16.925,3.489-33.592,2.23-50.507C97.169,22.094,90.987-.094,70.662,0,61.751.6,55.687,8.872,49.185,14.149c-9.774,9.9-4.912,26.476-6.358,38.967" transform="translate(0)" fill="#fff"/></g><path d="M29.608,0h0a26.838,26.838,0,0,0-6.2.732A28.218,28.218,0,0,0,17.625,2.8,29.366,29.366,0,0,0,8.1,10.186,27.865,27.865,0,0,0,5.023,14.6,25.757,25.757,0,0,0,2.91,19.5,23.75,23.75,0,0,0,1.9,24.734a22.745,22.745,0,0,0,.235,5.437C1.235,28.889.61,28.239.277,28.239c-.1,0-.18.065-.225.192a5.867,5.867,0,0,0,.316,2.528c.3,1.143.766,2.611,1.325,4.133C2.236,36.569,2.827,38,3.357,39.127a7.97,7.97,0,0,0,1.33,2.234c.975.972,1.856,1.783,2.693,2.479a23.086,23.086,0,0,0,2.954,2.116,14.374,14.374,0,0,0,6.984,2.155c.515,0,.987.006,1.443.006a71.576,71.576,0,0,0,10.211-.608A32.321,32.321,0,0,0,38.7,44.642a42.52,42.52,0,0,0,6.609-6.1,39.474,39.474,0,0,0,5.269-7.585,30.072,30.072,0,0,0,3.043-8.541,22.861,22.861,0,0,0-.07-8.966,14.572,14.572,0,0,0-3.394-6.2A19,19,0,0,0,44.5,3.125,33.424,33.424,0,0,0,30.548.017C30.237.006,29.921,0,29.608,0ZM18.593,40.456h0a9.267,9.267,0,0,1-2.2-.576,9.913,9.913,0,0,1-1.933-1.041,14.027,14.027,0,0,1-3.175-3.127A26.439,26.439,0,0,1,8.87,31.768c-.717-1.4-1.345-2.843-1.864-4.068a13.859,13.859,0,0,1-.117-7.06,17.025,17.025,0,0,1,3.075-6.266,23.285,23.285,0,0,1,3.948-4.021,27.29,27.29,0,0,1,4.846-3.109,26.672,26.672,0,0,1,5.312-2.006,21.509,21.509,0,0,1,5.345-.712h0c.206,0,.405,0,.609.01A25.415,25.415,0,0,1,41.779,6.983a13.933,13.933,0,0,1,3.7,2.765,11.838,11.838,0,0,1,2.31,3.547,15.445,15.445,0,0,1,.022,10.832,31,31,0,0,1-7.5,11.736c-3.8,5.154-10.686,5.36-16.757,5.542-.829.025-1.612.048-2.387.084a2.752,2.752,0,0,1-1.052-.553,1.986,1.986,0,0,0-1.187-.522,1.5,1.5,0,0,0-.342.041Z" transform="translate(213.006 79.177) rotate(180)" fill="#fff"/><path d="M0,3.41c5.034,6.558,14.608,8.078,20.109,14.036C26.326,10.939,1.422-7.578,0,3.41" transform="translate(123.807 32.186)" fill="#fff"/><path d="M13.427,14.582C11.377,9.378,9.006,1.739,3.106,0c-7.612,1.345.967,11.754,2.515,15.618,1.1,1.652,4.591,6.656,6.147,3.128.429-1.67,2.122-2.068,1.658-4.165" transform="translate(205.691 76.082)" fill="#fff"/><path d="M7.584,8.316c.136-2.129-.813-4.422-1.328-6.787C5.448-.694,1.428-.463.845,2.028-2.735,11.3,6.126,27.881,7.584,8.316" transform="translate(184.305 87.619)" fill="#fff"/><path d="M0,10.1c1.353,4.678,10.217-1.473,12.461-3.365C14.429,4.1,16.539.089,11.542,0,7.028,1.814,1.768,5.474,0,10.1" transform="translate(133.093 71.58)" fill="#fff"/><path d="M7.307,3.408C7.471-.183,5.407.749,2.851,0,.855,1.28-.86,13.952.47,15.546,4.8,17.394,7.217,6.613,7.307,3.408" transform="translate(193.028 7.142)" fill="#fff"/><g transform="translate(152.059 0)"><path d="M7.24,8.767C6.8,5.941,7.475.751,3.812.017,2.427-.119.376.558.161,2.229-1.388,8.062,8.786,23,7.17,8.772l.07-.006" transform="translate(0 0)" fill="#fff"/></g><g transform="translate(224.528 48.668)"><path d="M8.916,5.45c1.763-.115,11.017-2.044,6.967-5.035C8.1-1.744-11.3,5.2,8.916,5.45" transform="translate(0)" fill="#fff"/></g><path d="M6.126,3.165C5.7,1.75,3.6,1.6,3.135.136,3.12.062,2.777-.043,2.681.018.362.831-1.132,7.4,1.1,8.713c1.961.218,5.623-3.081,5.03-5.547" transform="translate(161.232 89.307)" fill="#fff"/></g></g></svg>