<svg xmlns="http://www.w3.org/2000/svg" width="122" height="122" viewBox="0 0 122 122"><g transform="translate(-287.563 -725)"><path d="M27.966,2.221c4.509,2.041,7.982.518,11.808,9.825.724,3.382,5.513,22.7,3.281,22.611-9.189.178-17.848-1.46-27.009-1.173C14.151,33.4,4.489,34.9,3.631,34.372-.2,31.934,1.146,28.909.423,26.257-.167,24.7-.829-.9,3.631.024" transform="translate(287.813 818.233) rotate(-90)" fill="#ff3f56"/><path d="M43.356,0A3.391,3.391,0,0,0,41.3.67a6.781,6.781,0,0,0-1.4,1.473c-.111.149-.22.3-.325.445l0,0c-.655.909-1.221,1.695-2.041,1.695a1.426,1.426,0,0,1-.369-.051,9.5,9.5,0,0,0-5.109-1.868A3.934,3.934,0,0,0,28.865,3.8,5.185,5.185,0,0,0,27.837,6.4a11.115,11.115,0,0,0,.247,3.818,1,1,0,0,1-.584.625,2.516,2.516,0,0,1-.979.15c-.291,0-.6-.021-.927-.043l-.03,0c-.313-.021-.667-.045-1.016-.045a3.427,3.427,0,0,0-1.675.339,2.326,2.326,0,0,0-1.106,1.52c-.539.6-.513,1.841-.491,2.933.019.9.035,1.674-.249,1.964a.387.387,0,0,1-.291.118h-.027a76.468,76.468,0,0,1-7.01-4.663A72.422,72.422,0,0,0,6.2,8.181a8.088,8.088,0,0,0-3.281-.9A2.513,2.513,0,0,0,.508,8.685a6.261,6.261,0,0,0-.5,3.068,18.2,18.2,0,0,0,.639,3.872,27.2,27.2,0,0,0,1.324,3.807,16.051,16.051,0,0,0,1.556,2.873,51.191,51.191,0,0,0,7.721,8.73,56.861,56.861,0,0,0,9.416,6.884,1.713,1.713,0,0,1,1.122,1.414,7.025,7.025,0,0,1-.127,2.047,6.909,6.909,0,0,0-.121,2.129,14.141,14.141,0,0,0,.245,2.219A11.274,11.274,0,0,0,22.46,48a6.809,6.809,0,0,0,1.2,1.937,4.269,4.269,0,0,0,1.819,1.208,5.608,5.608,0,0,0,2.037,1.186,7.432,7.432,0,0,0,2.329.346c2.682,0,5.621-1.125,7.983-2.028l.211-.081a2.645,2.645,0,0,1,1.082-.354.843.843,0,0,1,.669.314,73.8,73.8,0,0,0,5.469,5.5A37.276,37.276,0,0,0,51.492,60.6c.477.279.711.562.713.865,0,.271-.185.558-.573.88a10.714,10.714,0,0,1-1.23.822,5.663,5.663,0,0,0-1.32.955,2.71,2.71,0,0,0-.52,1.036,2.587,2.587,0,0,0-.021,1.092,4.185,4.185,0,0,0,.513,1.31,8.406,8.406,0,0,0,.994,1.345,20.7,20.7,0,0,0,3.044,2.707,85.108,85.108,0,0,0,7.594,4.876,45.546,45.546,0,0,1,3.865,2.429,15.975,15.975,0,0,0,4.3,1.243c.288,0,.456-.071.5-.21.1-.317-.452-1-1.626-2.029-.968-.849-2.372-1.942-4.174-3.25-3.19-2.316-6.715-4.647-8.041-5.525l-.3-.2a5.846,5.846,0,0,0-1.218-.87c-.825-.5-1.761-1.074-1.844-1.688a.788.788,0,0,1,.252-.652,9.962,9.962,0,0,0,2-1.306c1.246-.923,2.659-1.969,3.417-1.969a.474.474,0,0,1,.493.354,10.474,10.474,0,0,0,.089,2.861,3.333,3.333,0,0,0,.742,1.622,2.433,2.433,0,0,0,1.9.729,11.1,11.1,0,0,0,3.14-.669l.252-.081A9.511,9.511,0,0,1,66.92,66.7a1.243,1.243,0,0,1,.661.153.857.857,0,0,1,.376.528,7.226,7.226,0,0,0-.6,2.148,4.325,4.325,0,0,0,.24,2.177,2.4,2.4,0,0,0,1.493,1.37,1.281,1.281,0,0,0,.624.152,2.876,2.876,0,0,0,1.2-.331,11.489,11.489,0,0,0,1.256-.729l.266-.173a4.454,4.454,0,0,1,1.795-.887.44.44,0,0,1,.345.142,1.89,1.89,0,0,1,.18,1.355,9.042,9.042,0,0,0,.258,1.8,3.535,3.535,0,0,0,.5,1.132A1.711,1.711,0,0,0,77,76.29a6.106,6.106,0,0,0,2.167-.583l.2-.083a5.139,5.139,0,0,1,1.638-.5.639.639,0,0,1,.522.213c.245.291.282.9.115,1.866a2.306,2.306,0,0,0,.33,1.446,5.849,5.849,0,0,0,.941,1.111,2.054,2.054,0,0,0,.346.031,1.2,1.2,0,0,0,.953-.416,2.188,2.188,0,0,0,.431-1.017,6.484,6.484,0,0,0,.088-1.365,21.976,21.976,0,0,0-.309-2.767c-.039-.245-.072-.457-.1-.634a2.966,2.966,0,0,0-.31-.78,1.769,1.769,0,0,0-.436-.5,1.823,1.823,0,0,0-1.156-.349,7.518,7.518,0,0,0-2.29.526l-.163.056a6.639,6.639,0,0,1-1.861.47.813.813,0,0,1-.687-.279,22.994,22.994,0,0,0-.153-2.425,6.9,6.9,0,0,0-.352-1.569c-.286-.749-.707-1.1-1.325-1.1a8.058,8.058,0,0,0-3.013,1.164c-.693.357-1.478.762-2.34,1.14a10.725,10.725,0,0,1,.245-2.351,10.082,10.082,0,0,0,.206-1.6,1.585,1.585,0,0,0-1.222-1.75,5.415,5.415,0,0,0-1.585-.191c-.251,0-.526.01-.817.029a16.8,16.8,0,0,0-2.857.583,8.74,8.74,0,0,1-2.054.4,1.354,1.354,0,0,1-1.058-.4c-.5-.527-.674-1.645-.56-3.518a6.811,6.811,0,0,1,1.181-1.715c.482-.533,1.041-1.046,1.581-1.542a16.13,16.13,0,0,0,2.25-2.36.543.543,0,0,1,.366-.167.375.375,0,0,1,.273.117.59.59,0,0,1,.148.432,15.876,15.876,0,0,0,.228,3.763,5.567,5.567,0,0,0,.378,1.179,2.866,2.866,0,0,0,.52.783,1.919,1.919,0,0,0,.685.462,2.157,2.157,0,0,0,.787.139,4.541,4.541,0,0,0,1.666-.385,15.58,15.58,0,0,0,1.71-.847l.451-.254.011-.006A6.166,6.166,0,0,1,75,59.779a.5.5,0,0,1,.4.166.912.912,0,0,1,.168.557,7.939,7.939,0,0,0,.331,2.843,7.783,7.783,0,0,0,.547,1.373,5.224,5.224,0,0,0,.772,1.129,3.091,3.091,0,0,0,.852.669,2.159,2.159,0,0,0,1,.247,3.309,3.309,0,0,0,2.185-1.038,3.026,3.026,0,0,0,.587-.585c.333-.388.711-.828,1.051-.828a.5.5,0,0,1,.412.272c.09.392.153.884.219,1.4a11.81,11.81,0,0,0,.562,2.726,1.78,1.78,0,0,0,1.676,1.353,2.9,2.9,0,0,0,1-.2,3.222,3.222,0,0,0,.582-.338,1.934,1.934,0,0,1,1.1-.445h.028a1.923,1.923,0,0,0,1.08-.654,1.241,1.241,0,0,0,.245-.92,1.4,1.4,0,0,0-.459-.861,1.481,1.481,0,0,0-1.006-.375,2.374,2.374,0,0,0-1.386.516,1.014,1.014,0,0,1-.339.065c-.332,0-.584-.21-.8-.66a8.647,8.647,0,0,1-.46-1.518l0-.009c-.032-.133-.066-.271-.1-.408a6.374,6.374,0,0,0-.661-1.784,1.531,1.531,0,0,0-1.354-.811,3.347,3.347,0,0,0-1.508.459,12.477,12.477,0,0,0-2.175,1.557,1.7,1.7,0,0,1-.834-.406,1.793,1.793,0,0,1-.458-.712,7.026,7.026,0,0,1-.289-1.95A5.956,5.956,0,0,0,77.54,58.3a1.774,1.774,0,0,0-.737-.768,2.8,2.8,0,0,0-1.366-.292,8.623,8.623,0,0,0-2.113.323,25.066,25.066,0,0,0-3.083,1.066c-1.025-.078-1.009-1.433-.994-2.744a4.8,4.8,0,0,0-.258-2.175.852.852,0,0,1-.244-.567,1.572,1.572,0,0,1,.143-.684A4.813,4.813,0,0,1,70.2,50.815a2.87,2.87,0,0,1,1.541-.789.407.407,0,0,1,.426.283,8.117,8.117,0,0,0,.144,2.256,3.774,3.774,0,0,0,.848,1.794,2.059,2.059,0,0,0,1.563.67,3.9,3.9,0,0,0,1.555-.379,5.775,5.775,0,0,0,1.944-1.17,4.879,4.879,0,0,1,2.2-1.231c.482,0,.772.405.888,1.239a15.332,15.332,0,0,1,.326,1.561,14.572,14.572,0,0,0,.729,2.938c.418,1,.981,1.483,1.723,1.483a2.418,2.418,0,0,0,.952-.225L85.387,59c.735-.526,1.179-.844,1.513-.844.217,0,.386.138.548.447a8.294,8.294,0,0,1,.513,1.481.851.851,0,0,0,.765.466.988.988,0,0,0,.687-.289,2.662,2.662,0,0,0,.742-.976,3.133,3.133,0,0,0,.246-1.13,9.87,9.87,0,0,0-.319-2.445c-.079-.367-.153-.714-.208-1.052-.474-.711-.936-1.056-1.411-1.056a1.44,1.44,0,0,0-.886.373,6.727,6.727,0,0,0-.811.82l-.08.091c-.495.567-.962,1.1-1.444,1.1-.385,0-.744-.35-1.1-1.07A19.568,19.568,0,0,1,82.926,50.9a2.315,2.315,0,0,0-.8-1.022,1.845,1.845,0,0,0-1.041-.294A8.035,8.035,0,0,0,77.762,50.8c-.468.25-.91.486-1.293.644a1.056,1.056,0,0,1-.23.027c-1.021,0-1.043-1.791-1.06-3.231a8,8,0,0,0-.091-1.461,2.933,2.933,0,0,1,.571-1.809A4.458,4.458,0,0,1,77.1,43.79h.012a.79.79,0,0,1,.511.168,1.125,1.125,0,0,1,.317.443,5.788,5.788,0,0,1,.313,1.352,3.7,3.7,0,0,0,.545,1.753,2.722,2.722,0,0,0,.778,1.026,1.5,1.5,0,0,0,.91.3A5.776,5.776,0,0,0,83.5,47.255l.265-.211.017-.013a5.13,5.13,0,0,1,2.282-1.354c.634,0,.931.765.934,2.408a5.921,5.921,0,0,0,.771,2.748,1.88,1.88,0,0,0,.627.6,1.443,1.443,0,0,0,.714.184,2.328,2.328,0,0,0,1.276-.449,4.348,4.348,0,0,0,1.1-1.1A4.041,4.041,0,0,0,92.1,48.8a2.069,2.069,0,0,0-.009-1.217,2.536,2.536,0,0,0-1.149-.336,1.545,1.545,0,0,0-.513.09l-.08.028a.811.811,0,0,1-.249.062c-.279,0-.45-.416-1.075-2.619a3.671,3.671,0,0,0-1.046-1.48,1.913,1.913,0,0,0-1.212-.409,3.541,3.541,0,0,0-1.19.242,12.752,12.752,0,0,0-1.209.532l-.087.042a5.519,5.519,0,0,1-2.155.732,1.345,1.345,0,0,1-.723-.194,1.779,1.779,0,0,1-.606-.669,8.42,8.42,0,0,1-.753-3.295,1.667,1.667,0,0,1,.59-1.9c.1-.095.2-.187.3-.276h0c.635-.589,1.093-1.015,1.663-1.015a2.366,2.366,0,0,1,1.429.7c1.158.806,2.327,1.638,3.458,2.442l0,0c.631.449,1.283.913,1.926,1.368a.965.965,0,0,0,.664.311,1.884,1.884,0,0,0,1.076-.576,4.792,4.792,0,0,1,.575-.428,2.032,2.032,0,0,0,.53-.639,1.1,1.1,0,0,0,.111-.628c-.071-.576-.6-1.183-1.619-1.857a28.187,28.187,0,0,0-3.011-1.627,12.781,12.781,0,0,1-2.422-1.364,3.9,3.9,0,0,0-.936-.49,2.635,2.635,0,0,0-.864-.151,3.038,3.038,0,0,0-1.795.662,10.348,10.348,0,0,0-1.589,1.528c-.729.254-1.386,1.182-2.02,2.08-.694.981-1.349,1.907-2.049,1.907a.855.855,0,0,1-.433-.124c-1.978-2.037-4.038-4.076-6.03-6.047-1.331-1.318-2.708-2.68-4.045-4.027a31.146,31.146,0,0,0,1.54-7.325,10.712,10.712,0,0,0-.17-2.714,7.337,7.337,0,0,0-.845-2.25,8.234,8.234,0,0,0-1.554-1.912,14.217,14.217,0,0,0-2.3-1.7,30.819,30.819,0,0,0-3.081-1.616c-1.076-.5-2.35-1.041-3.9-1.657a1.411,1.411,0,0,1-.565-.32.9.9,0,0,1-.26-.526,10.637,10.637,0,0,0-2.782-5.4,15.842,15.842,0,0,0-2.311-2.041A20.705,20.705,0,0,0,46.705,1.07,9.7,9.7,0,0,0,44.853.247,5.1,5.1,0,0,0,43.356,0Zm3.2,14.106h0a.655.655,0,0,1-.581-.359c-.27-1.295-1.428-2.588-2.548-3.838a17.183,17.183,0,0,1-1.825-2.27,3.892,3.892,0,0,1-.488-1.093,1.971,1.971,0,0,1,.008-1.059,3.129,3.129,0,0,1,1-1.235,2.367,2.367,0,0,1,1.38-.426,3.315,3.315,0,0,1,1.144.22,14,14,0,0,1,4.038,2.332,4.978,4.978,0,0,1,1.957,3.981,2.818,2.818,0,0,1-.318,1.537,2.254,2.254,0,0,1-1.246.961,3.21,3.21,0,0,0-1.158.6,2.955,2.955,0,0,1-1.364.65ZM32.423,9.572a3.206,3.206,0,0,1,.227-2.47.979.979,0,0,1,.788-.332,4.015,4.015,0,0,1,1.851.655,15.987,15.987,0,0,1,2.163,1.551,22.251,22.251,0,0,1,3.28,3.3,10.7,10.7,0,0,1,1.809,3.588,4.729,4.729,0,0,1,.109,3.052.958.958,0,0,1-.918.589h0a2.827,2.827,0,0,1-1.356-.467,11.593,11.593,0,0,1-1.968-1.546,7.538,7.538,0,0,0-3.141-3.221c-1.728-1.182-3.36-2.3-2.881-4.7Zm-10.9,26.357h0a.5.5,0,0,1-.295-.111c-1.205-1.236-2.453-2.468-3.659-3.66h0c-1.576-1.557-3.206-3.167-4.755-4.8-1.738-1.83-3.19-3.5-4.44-5.1a31.6,31.6,0,0,1-3.443-5.107A17.673,17.673,0,0,1,3.742,14.33a13.6,13.6,0,0,1-.6-3.016,1.018,1.018,0,0,1,.812-.339c1.582,0,4.442,2.325,6.741,4.193A22.955,22.955,0,0,0,13.543,17.3c1.628.986,3.26,2.063,4.838,3.1a82.307,82.307,0,0,0,8.881,5.341,31.426,31.426,0,0,0,4.758,1.9,25.1,25.1,0,0,0,2.51.623,23.139,23.139,0,0,0,2.618.352c.13.005.259.008.382.008a3.676,3.676,0,0,0,3.075-1.119,3.18,3.18,0,0,0,.54-1.1,9.8,9.8,0,0,0,.245-1.2,7.352,7.352,0,0,1,.24-1.128,1.493,1.493,0,0,1,.532-.794c2.47-.277,4.008-.838,4.7-1.713a2.954,2.954,0,0,0,.394-2.356c-.1-.8-.178-1.485.548-1.844.113,0,.227.005.34.005a10.017,10.017,0,0,0,1.558-.119,7.848,7.848,0,0,0,1.515-.391,5.166,5.166,0,0,0,2.461-1.806,2.594,2.594,0,0,1,.456-1.062.769.769,0,0,1,.613-.3,3.54,3.54,0,0,1,1.689.859,8.42,8.42,0,0,0,1.152.74c1.921,1.1,3.458,2.041,4.313,3.306a4.252,4.252,0,0,1,.734,2.211,8.113,8.113,0,0,1-.533,3.062c-.1.312-.212.637-.329.981a17.115,17.115,0,0,0-1.092,4.43,3.447,3.447,0,0,0,1.76,3.514c1.733,1.32,3.739,2.868,5.619,4.539a38.208,38.208,0,0,1,4.967,5.23,2.782,2.782,0,0,1,.029.964,3.374,3.374,0,0,1-.287.937,6.517,6.517,0,0,1-1.332,1.8,31.471,31.471,0,0,1-4.37,3.376c-1.008.693-1.96,1.347-2.792,2.009a8.918,8.918,0,0,0-1.955,1.978c-1.182,1.318-2.347,2.6-3.607,3.767A20.951,20.951,0,0,1,54.547,60.5a1.225,1.225,0,0,1-.64.255c-.247,0-.472-.157-.8-.561-2.383-2.708-4.985-5.3-7.5-7.8-1.487-1.48-3.024-3.01-4.5-4.546a3.713,3.713,0,0,0-2.357-.7,10.434,10.434,0,0,0-2.455.355c-.863.213-1.776.5-2.658.78h0a18.608,18.608,0,0,1-5.121,1.136,3.562,3.562,0,0,1-2.719-1.021,3.935,3.935,0,0,1-.677-.985,6.5,6.5,0,0,1-.484-1.4,11.894,11.894,0,0,1-.266-1.858,21.7,21.7,0,0,1-.023-2.374c.073-.594.125-1.246.18-1.937h0c.277-3.479.621-7.81,4.12-9.367a1.153,1.153,0,0,1,.466-.109.645.645,0,0,1,.483.193.845.845,0,0,1,.194.644,29.943,29.943,0,0,1-.438,5.146h0c-.149,1.039-.3,2.114-.383,3.158a15,15,0,0,0,.041,3.088,2.685,2.685,0,0,0,.868.929,1.917,1.917,0,0,0,1.034.306,2.445,2.445,0,0,0,1.985-1.223,15.165,15.165,0,0,1,2.285-2.2c2.043-1.773,4.586-3.979,4.212-5.188a.937.937,0,0,0-.486-.536,3.225,3.225,0,0,0-1.138-.3l-.67.4c-2.282,1.367-3.324,1.991-3.809,1.991a.318.318,0,0,1-.243-.091c-.175-.182-.157-.641-.129-1.335a15.3,15.3,0,0,0-.442-4.794,3.663,3.663,0,0,0-1.391-2.018,3.379,3.379,0,0,0-1-.471,4.056,4.056,0,0,0-1.116-.151,5.062,5.062,0,0,0-1.309.179,5.86,5.86,0,0,0-1.27.509,5.587,5.587,0,0,0-2.034,1.844,2.544,2.544,0,0,0-.837,1.18c-.241.547-.452,1.2-.656,1.838-.409,1.272-.8,2.473-1.336,2.473Zm16.2-10.4c-3.2-.089-6.213-1.378-9.124-2.625h0c-.508-.218-1.033-.443-1.547-.656a3.346,3.346,0,0,1-2.108-1.984,8.245,8.245,0,0,1-.423-2.907,2.552,2.552,0,0,1,.38-2.088,2.148,2.148,0,0,1,1.706-.62,7.683,7.683,0,0,1,2.133.366,17.229,17.229,0,0,1,2.306.89,17.645,17.645,0,0,1,3.525,2.1l.2.215.011.012a32.723,32.723,0,0,1,2.612,3.03c1.087,1.484,1.539,2.613,1.343,3.356A1.344,1.344,0,0,1,37.717,25.533Z" transform="translate(409.563 781.683) rotate(135)"/><path d="M9.566,9.424C7.186,6.2,8.233,6.89,10.011,3.789c.6-3.835-2.115-1.36-3.212.306C4.921,5.029,3.832.629,2,.092a.748.748,0,0,0-.951.2C-2.614,3.158,4.662,5.305,2.822,8.078,1.916,9.4.851,10.7.045,12.058c.655,4.2,4.471-3.707,6.1-2.6,1.08.619,2.963,1.993,3.424-.034" transform="translate(353.21 793.905) rotate(135)"/></g></svg>