<svg xmlns="http://www.w3.org/2000/svg" width="115.89" height="57.171" viewBox="0 0 115.89 57.171"><g transform="translate(-604.25 -2002.096)"><path d="M27.966,2.221c4.509,2.041,7.982.518,11.808,9.825.724,3.382,5.513,22.7,3.281,22.611-9.189.178-17.848-1.46-27.009-1.173C14.151,33.4,4.489,34.9,3.631,34.372-.2,31.934,1.146,28.909.423,26.257-.167,24.7-.829-.9,3.631.024" transform="translate(604.25 2057.733) rotate(-90)" fill="#ff3f56"/><path d="M29.834,94.267h0a1.708,1.708,0,0,1-1.321-.438A1.561,1.561,0,0,1,28.2,92.6a4.788,4.788,0,0,0,.1-.71c.069-.716.134-1.393,1.043-1.418.784-.135,1.576-.268,2.342-.4,1.367-.23,2.777-.468,4.162-.716,1.879-.165,1.909-.963,1.963-2.411,0-.13.01-.266.016-.408a1.667,1.667,0,0,0-.926-1.761c-1.49-1.266-2.61-1.881-3.426-1.881-1.141,0-1.555,1.192-1.994,2.454l-.081.233c-.5,1.416-1.066,2.688-2.55,2.688a4.162,4.162,0,0,1-1.482-.325,8.833,8.833,0,0,0-2.428-1.162c-.178,0-.233.115-.316.29a1.905,1.905,0,0,1-1.387,1.078c-1.126-.529-1.624-2.462-1.318-3.837a1.715,1.715,0,0,1,1.65-1.555A4.984,4.984,0,0,1,26.48,84.2c.834.831,1.457,1.234,1.9,1.234.8,0,.948-1.281,1.114-2.764v-.005c.023-.209.048-.426.074-.641.2-1.65.553-3.409,2.11-3.409a3.081,3.081,0,0,1,1,.195,3.7,3.7,0,0,1,1.625.854,3.349,3.349,0,0,0,1.621.829.785.785,0,0,0,.583-.257,3.275,3.275,0,0,0-.692-3.541,8,8,0,0,1-1.1-.968c-.8-.78-1.792-1.75-2.521-1.75a.756.756,0,0,0-.657.4c-.159.382-.3.862-.458,1.369-.51,1.683-1.146,3.778-2.785,3.779a2.611,2.611,0,0,1-.931-.192c-2.3-1.459-3.814-2.169-4.639-2.169a.794.794,0,0,0-.615.225c-.324.346-.277,1.044-.227,1.784v.005c.005.08.011.16.016.24a2.6,2.6,0,0,1-.342,1.9,1.319,1.319,0,0,1-1.016.356,3.9,3.9,0,0,1-.75-.083c-.277-.2-.575-.393-.89-.6C17.548,80.109,16,79.112,16.165,77.3a.92.92,0,0,1,.883-.944.9.9,0,0,1,.27.042,4.74,4.74,0,0,0,1.765.748c.524,0,.617-.564.821-1.8q.033-.2.071-.423a1.683,1.683,0,0,1,1.609-1.272c1.144,0,2.6,1.016,3.763,1.832a15.321,15.321,0,0,0,1.336.874,1.808,1.808,0,0,0,1.017.455c.827,0,1-1.34,1.175-2.636a5.776,5.776,0,0,1,.547-2.2c.512-1.327,1.3-2,2.331-2A5.452,5.452,0,0,1,35.4,72.136a.433.433,0,0,0,.189.047c.534,0,.859-1.152.866-2.266s-.308-2.422-1.218-2.433a4.8,4.8,0,0,1-1.721-1.356c-.7-.718-1.428-1.461-2.077-1.461a.844.844,0,0,0-.567.223c-1.568,3.743-2.952,5.486-4.356,5.486a4.207,4.207,0,0,1-2.468-1.388l-.038-.034A4.015,4.015,0,0,0,21.662,67.6a1.678,1.678,0,0,0-.939.3,8.778,8.778,0,0,1-.81,3.534,1.591,1.591,0,0,1-1.426.936,5.149,5.149,0,0,1-2.39-.964l-.177-.107A4.631,4.631,0,0,0,14,70.447a.741.741,0,0,0-.7.489c-.209,1.323-1,1.794-1.671,1.794a1.349,1.349,0,0,1-1.178-.657,1.648,1.648,0,0,1,.148-1.68,1.9,1.9,0,0,0,.482-1.11,3.214,3.214,0,0,1,.173-.651c.407-.89.955-1.323,1.676-1.323,1.061,0,2.278.942,3.352,1.773.415.321.807.624,1.148.838a.862.862,0,0,0,.168.018.425.425,0,0,0,.326-.129c.229-.247.185-.816.147-1.318a3.027,3.027,0,0,1,0-.827c.1-2.43,1.468-2.94,2.6-2.94a7.7,7.7,0,0,1,5.109,2.617.858.858,0,0,0,.551.276c.578,0,.892-1.129,1.256-2.435.088-.317.18-.646.279-.975.51-1.686,1.242-3.409,2.808-3.409,1.251,0,2.848,1.064,4.884,3.253a.588.588,0,0,0,.415.2c.237,0,.4-.2.411-.486a16.134,16.134,0,0,1-.078-3.259,11.106,11.106,0,0,0-.35-4.257c-1.263-1.427-2.192-2.092-2.921-2.092-.889,0-1.45.973-2.16,2.2A16.81,16.81,0,0,1,29.264,58.8c-1.092,1.246-1.944,1.827-2.681,1.827-.9,0-1.512-.878-2.219-1.895a10.722,10.722,0,0,0-1.489-1.836c-.343.878-.612,1.719-.849,2.461-.617,1.931-1.064,3.326-2.172,3.326-.861,0-2.1-.826-4.029-2.679a.691.691,0,0,0-.082,0c-.639,0-1.077.9-1.585,1.94-.064.13-.128.263-.194.395-.563,1.13-1.258,2.335-2.4,2.336a2.452,2.452,0,0,1-1.229-.393c-.142-.108-.314-.234-.514-.379-1.312-.954-3.507-2.55-3.5-3.9a1.331,1.331,0,0,1,.65-1.083h.135a2.979,2.979,0,0,1,2.572.91c.588.835,1.063,1.24,1.451,1.24.555,0,.888-.8,1.274-1.735.065-.156.131-.317.2-.477.5-1.148,1.112-2.211,2.25-2.211A4.906,4.906,0,0,1,17.8,58.208c.461.559.823.831,1.108.831.533,0,.733-.946.965-2.041.282-1.332.6-2.841,1.606-3.133a2.479,2.479,0,0,1,1.1-.27c1.671,0,3.1,1.813,3.72,3.5a.934.934,0,0,0,.455.129c.787,0,1.4-1.184,2.1-2.555l0,0c.1-.2.2-.4.309-.6.8-1.527,1.79-3.155,3.325-3.155,1.116,0,2.374.845,3.847,2.585a.544.544,0,0,0,.247.066c.784,0,1.1-2.111,1.376-3.974a9.969,9.969,0,0,1,.493-2.339c-.018-.558-.352-.83-1.021-.83a7.658,7.658,0,0,0-1.652.275l-.109.026a6.886,6.886,0,0,1-1.383.249q-.047,0-.091,0l-.341.069c-10.03,2.044-14.2,2.473-15.927,2.474-.962,0-1.477-.129-1.531-.383-.1-.458,1.3-1.334,4.146-2.6A45.535,45.535,0,0,0,25,45.508c3.594-.921,8.515-2.183,12.082-2.183a7.64,7.64,0,0,1,3.344.6,2.608,2.608,0,0,1,1.523,2.122,5.666,5.666,0,0,1-.258,1.607c-.237.966-.482,1.965-.123,2.422a.728.728,0,0,0,.608.248,2.25,2.25,0,0,0,.558-.083,41.622,41.622,0,0,1,11.04-1.265c1.31,0,2.735.037,4.357.113l.08,0c.7,0,.938-.7,1.129-1.269l.091-.2a30.84,30.84,0,0,1,3.151-5.847c1.566-2.089,3.277-3.148,5.231-3.237a4.208,4.208,0,0,1,1.91-.437c2.823,0,5.519,2.335,6.278,3.051a6.911,6.911,0,0,1,1.419,1.59c.685.938,1.392,1.907,2.4,1.907a1.964,1.964,0,0,0,.75-.162,56.244,56.244,0,0,1,14.238-1.859,50.416,50.416,0,0,1,8.92.782,22.977,22.977,0,0,1,7.188,2.942c1.673,1.018,4.51,3.043,4.707,5.167.143,1.539-1.135,2.808-3.8,3.771a72.4,72.4,0,0,1-8.793,1.811,76.5,76.5,0,0,0-8.252,1.659.394.394,0,0,0-.142.3c-.006.407.559.949,1.212,1.576.789.756,1.682,1.614,1.728,2.421,1.035,1.839-.272,2.98-1.426,3.987-.885.772-1.649,1.439-1.243,2.277,2.906,1.858,4.345,4.117,3.949,6.2A4.527,4.527,0,0,1,97,78.244a10.449,10.449,0,0,1-4.274,1.725c-.92.531-.745,1.613-.541,2.866.347,2.132.778,4.785-3.966,6.116a18.46,18.46,0,0,1-5.5.911A10.829,10.829,0,0,1,76.357,88a.9.9,0,0,0-.552-.188,1.408,1.408,0,0,0-.63.173c-4.255,1.83-7.659,3.049-10.443,3.049a7.678,7.678,0,0,1-5.449-2.176,26.126,26.126,0,0,1-4.956-7.143l-1.44,0c-1.409,0-2.83.007-4.282.014h-.128c-1.4.007-2.846.014-4.274.014-1.54,0-2.889-.009-4.124-.027-.967.255-.737,1.6-.494,3.016a5.473,5.473,0,0,1,.042,2.9c.135,2.15.047,4.289-2.57,4.761a12.774,12.774,0,0,0-2.677.748A16.518,16.518,0,0,1,29.834,94.267ZM55.645,77.488c2.5,0,3.934,2.935,5.09,5.294.16.326.311.634.46.926,1.256,2.579,2.726,3.68,4.915,3.68a17.543,17.543,0,0,0,4.344-.806,8.422,8.422,0,0,1,1.338-.291c.882-.144,1.716-.281,1.957-.807.16-.35.041-.84-.363-1.5a5.224,5.224,0,0,1,.536-3.173A9.217,9.217,0,0,1,75.906,78.2c.26-.768-.285-1.2-.916-1.691A2.954,2.954,0,0,1,73.6,74.56c-.129-1.109.562-2.593,2.113-4.535a2.805,2.805,0,0,0-.813-1.9,4.679,4.679,0,0,1-1.078-2.271c-.079-1,.467-2.027,1.668-3.136,5.431-4.662,12.37-6.084,19.081-7.458,1.853-.38,3.77-.772,5.618-1.226a22.947,22.947,0,0,1,3.517-.506c3.461-.357,8.2-.847,8.067-2.616-3.308-2.824-7.85-3.645-11.438-4.045a86.441,86.441,0,0,0-10.549-.507c-.99,0-1.987.006-2.951.012h-.013c-.976.006-1.984.012-2.977.012-.8,0-1.516,0-2.185-.012a.445.445,0,0,0-.356.225c-.23.45.305,1.494.872,2.6.62,1.207,1.26,2.455,1.078,3.19a5.806,5.806,0,0,1-1.141,4.682,3.674,3.674,0,0,1-2.844,1.479,3.884,3.884,0,0,1-1.836-.5,15.3,15.3,0,0,1-3.7-3.077c-.475-.514-.788-.853-1.041-.853-.46,0-.726,1.061-1.516,4.21l-.011.044-.179.712a2.416,2.416,0,0,1-1.364.644.807.807,0,0,1-.61-.27c-.853-.916-.635-3.994-.459-6.468a15.172,15.172,0,0,0,.059-3.172,2.505,2.505,0,0,1,.411-2.127,2.011,2.011,0,0,1,1.6-.714,3.008,3.008,0,0,1,.747.1,23.564,23.564,0,0,1,4.176,4.659,29.946,29.946,0,0,0,3.329,3.949.836.836,0,0,0,.609.319.822.822,0,0,0,.714-.612c1.373-3.575-1.446-6.881-3.711-9.537-.45-.527-.874-1.025-1.243-1.5C72.98,41.9,71.094,40.7,69.479,40.7c-2.475,0-3.961,2.861-5.4,5.628-1.354,2.607-2.755,5.3-4.978,5.588-1.252-.026-2.6-.038-4.356-.038q-1.017,0-2.034,0-1.035,0-2.071,0c-2.787,0-5.777-.026-8.753-.216-.137-.014-.251-.02-.351-.02-.546,0-.752.192-.884.823-.949,3.252-.857,6.609-.653,10.346.323,1.539-.095,3.792-.537,6.176-.707,3.813-1.438,7.755.791,9.218a34.131,34.131,0,0,0,4.434.271,74.682,74.682,0,0,0,9.96-.85A3.613,3.613,0,0,1,55.645,77.488Zm23.9,1.959c-.643,0-.8.818-.952,1.609A3.213,3.213,0,0,1,78.2,82.3a2.246,2.246,0,0,0,.661,2.873,4.778,4.778,0,0,0,3.677,1.448A13.093,13.093,0,0,0,87.566,85.4a2.614,2.614,0,0,0,1.474-3.513c-.691-1.272-2.667-1.382-4.759-1.5-1.676-.093-3.408-.188-4.515-.912A.937.937,0,0,0,79.55,79.448Zm2.924-7.978h0c-3.319.1-4.048.912-4.075,1.574-.059,1.426,3.2,3.429,6.119,3.759a15.637,15.637,0,0,0,2.2.126c3.022,0,6.7-.48,7.135-1.833.2-.626-.321-1.385-1.548-2.255l.026-.026a3.345,3.345,0,0,0-3.014-1.588,13.028,13.028,0,0,0-2.347.3l-.053.01a13.87,13.87,0,0,1-2.5.311,4.724,4.724,0,0,1-1.944-.376ZM88.7,59.7a3.662,3.662,0,0,0-1.56.376c-.517.214-1.047.426-1.561.632C82.642,61.88,79.6,63.1,77.275,65.3a1.345,1.345,0,0,0-.072,1.365c.9,1.551,5.561,1.673,7.315,1.719h.011l.3.008c1.907-.163,8.033-1.971,8.714-4.366.222-.783-.165-1.551-1.151-2.283C91.32,60.706,90.153,59.7,88.7,59.7Z" transform="translate(604 1964.5)" stroke="rgba(0,0,0,0)" stroke-miterlimit="10" stroke-width="1"/><path d="M9.566,9.424C7.186,6.2,8.233,6.89,10.011,3.789c.6-3.835-2.115-1.36-3.212.306C4.921,5.029,3.832.629,2,.092a.748.748,0,0,0-.951.2C-2.614,3.158,4.662,5.305,2.822,8.078,1.916,9.4.851,10.7.045,12.058c.655,4.2,4.471-3.707,6.1-2.6,1.08.619,2.963,1.993,3.424-.034" transform="translate(669.648 2033.405) rotate(135)"/></g></svg>