<svg xmlns="http://www.w3.org/2000/svg" width="147.424" height="128.723" viewBox="0 0 147.424 128.723"><g transform="translate(-83.414 -236.492)"><g transform="translate(83.414 236.492)"><path d="M58.733,128.723a1.64,1.64,0,0,1-1.376-.5,1.84,1.84,0,0,1-.11-1.62,84.893,84.893,0,0,1-15.234-6.645c-5.146-2.766-10.186-5.864-14.907-8.8a88.861,88.861,0,0,1-9.117-5.074c-2.2-1.339-4.472-2.725-6.781-3.927A38.835,38.835,0,0,0,3.99,99.182a5.737,5.737,0,0,1-1.773-.71,1.623,1.623,0,0,1-.855-1.512C.954,94.088.648,91.152.426,87.984c-.2-2.823-.323-5.768-.384-9-.113-6.01.022-12.135.152-18.059.178-8.094.362-16.464-.08-24.686a18.24,18.24,0,0,0-.04-2.876C-.1,30.924-.2,29.455,3.794,28.2c16.069-6.264,29.341-11.044,41.771-15.043,7.307-2.351,14.464-4.469,21.27-6.3,7.352-1.973,14.622-3.694,21.609-5.114l.108-.025a3.4,3.4,0,0,0,2.3-1.224A2.763,2.763,0,0,1,92.422,0c1.7,0,3.482,1.5,5.053,2.828a18.671,18.671,0,0,0,2.039,1.578,3.671,3.671,0,0,0,1.819.924c.96.284,1.867.553,1.911,1.712.67,1.71,2.348,2.828,3.971,3.909a19.231,19.231,0,0,1,2.4,1.778c1.26.893,2.561,1.771,3.819,2.62h0a90.81,90.81,0,0,1,8.536,6.263c1.317.975,2.7,1.908,4.036,2.81a71.212,71.212,0,0,1,6.251,4.559,27.85,27.85,0,0,1,2.77,2.675,21.2,21.2,0,0,1,2.35,3.153,2.661,2.661,0,0,0,1.877,1.124,2.052,2.052,0,0,0,.819-.186A9.945,9.945,0,0,1,142.8,37.6a8.347,8.347,0,0,1,2.029,2.921c.488,1.466.912,2.989,1.26,4.527.331,1.466.6,2.993.809,4.54a64.5,64.5,0,0,1,.526,9.114A166.009,166.009,0,0,1,145.9,77.006c-.551,4.579-1.121,9.312-1.378,13.958a9.494,9.494,0,0,1-.289,3.331,5.368,5.368,0,0,1-1.187,2.189,3.5,3.5,0,0,1-2.56,1.181,3.313,3.313,0,0,1-2.479-1.152,5.489,5.489,0,0,1-1.246-3.422c-1.687,2.611-3.864,3.619-5.97,4.593-.668.309-1.3.6-1.915.942-4.625,2.522-9.312,4.829-13.931,6.856-4.817,2.114-9.7,3.983-14.5,5.555-6.291,2.25-12.735,4.847-19.7,7.942-5.883,2.614-12.157,5.595-19.182,9.113A9.1,9.1,0,0,1,58.733,128.723ZM133.24,45.239a3.872,3.872,0,0,1,1.312.218,1.627,1.627,0,0,1,.879.655,1.17,1.17,0,0,1-.109,1.222,21.146,21.146,0,0,1-5.311,3.093c-1.9.8-3.922,1.431-5.878,2.043-1.56.488-3.173.992-4.7,1.574-8.37,2.964-16.978,5.715-25.3,8.375h0C83.643,65.773,72.8,69.239,62.336,73.16a1.513,1.513,0,0,0-1.067,1.119,5.207,5.207,0,0,0-.03,1.637c.022.266.043.518.047.762.091,5.539.18,11.17.267,16.616v.012q.038,2.4.076,4.805l-.32,0c.268.94.083,4.312-.132,8.217-.362,6.578-.812,14.764.587,16.242a.671.671,0,0,0,.494.233,1.421,1.421,0,0,0,.905-.491,82.727,82.727,0,0,1,7.615-4.736c2.457-1.358,5.072-2.666,7.993-4,5.425-2.473,11.1-4.649,16.59-6.754,6.658-2.553,13.542-5.192,19.966-8.362a51.1,51.1,0,0,0,8.02-3.972c1.855-1.058,3.774-2.152,5.733-3.044a23.543,23.543,0,0,1,6.16-1.935h.091c1.323,0,1.341-.122,1.558-1.618l0-.018c.19-1.968.585-4.593,1.042-7.632.568-3.778,1.211-8.06,1.686-12.516a95.16,95.16,0,0,0,.625-13.254,43.658,43.658,0,0,0-.588-6,22.922,22.922,0,0,0-1.456-5.092,11.98,11.98,0,0,0-2.525-3.826,8.706,8.706,0,0,0-3.795-2.2c-6.121-1.342-12.315-2.851-18.3-4.311h0c-7.652-1.865-15.565-3.793-23.409-5.393a1.39,1.39,0,0,1-.105-1.422,2.863,2.863,0,0,1,1.919-1.021,16.638,16.638,0,0,1,3.436-.291,46.531,46.531,0,0,1,11.212,1.446c2.622.628,5.277,1.318,7.844,1.986h0c3.438.894,6.993,1.819,10.515,2.605a.36.36,0,0,0,.046,0,.225.225,0,0,0,.208-.12.56.56,0,0,0-.018-.489c-2.03-1.568-4.24-2.984-6.377-4.353-1.55-.993-3.153-2.02-4.675-3.1A59.32,59.32,0,0,1,103.5,15.192c-1.543-1.363-2.474-2.186-3.345-2.186-1.253,0-2.417,1.69-5.228,5.773l-.11.16c-.443.493-.893.991-1.328,1.473-1.9,2.1-3.862,4.278-5.683,6.505a58.979,58.979,0,0,0-5.02,7.029c-.471.645-.927,1.359-1.409,2.114A24.055,24.055,0,0,1,78.5,39.981a6.869,6.869,0,0,1-1.753,1.335,4.534,4.534,0,0,1-2.083.513,5.879,5.879,0,0,1-2.4-.566,29.118,29.118,0,0,0-6.478-1.931c-2.215-.417-4.509-.668-6.728-.91-1.856-.2-3.775-.413-5.637-.718a4.5,4.5,0,0,0-1.537.712,6.9,6.9,0,0,0-1.277,1.194,22.88,22.88,0,0,0-2.117,3.186,17.124,17.124,0,0,1-2.723,3.816,7.4,7.4,0,0,0-2.074,3.279,11.81,11.81,0,0,1-.777,1.708,5.462,5.462,0,0,1-1.373,1.568c-.557,1.28,2.129,2.8,5.238,4.57,3.372,1.914,7.194,4.084,7.957,6.527a14.135,14.135,0,0,0,2.843,2.956,6.3,6.3,0,0,0,3.732,1.465,4.079,4.079,0,0,0,1.352-.229c4.5-1.753,9.479-3.506,15.236-5.361,5.134-1.654,10.394-3.234,15.481-4.761,6.708-2.014,13.643-4.1,20.373-6.375.992-.291,2-.577,2.966-.853,2.5-.712,5.084-1.447,7.577-2.307a48.632,48.632,0,0,0,7.29-3.124A2.833,2.833,0,0,1,133.24,45.239ZM5.591,37.111a47.542,47.542,0,0,0,.131,10.168,64.346,64.346,0,0,1,.34,7.688c-.1,3.548-.285,7.154-.469,10.641-.228,4.331-.464,8.808-.521,13.218a32.39,32.39,0,0,1-.01,4.071,27.528,27.528,0,0,0,.179,6.042,7.826,7.826,0,0,0,.918,2.581,5.442,5.442,0,0,0,1.916,1.924A216.976,216.976,0,0,1,37.6,110.463a68.416,68.416,0,0,0,10.511,6.162c1.96,1,3.986,2.028,5.919,3.145a1.174,1.174,0,0,0,.3.044.569.569,0,0,0,.426-.167c.313-.323.288-1.056.267-1.7a4.792,4.792,0,0,1,.015-.847c.083-5.293.164-10.651.243-15.833v-.016q.04-2.629.08-5.258l.147,0h.01c.021-1.153.041-2.325.06-3.459v-.044c.1-6.075.213-12.356.43-18.532a2.792,2.792,0,0,0-.15-1.152,3.069,3.069,0,0,0-.543-.929,9.34,9.34,0,0,0-1.761-1.5,6.831,6.831,0,0,1-2.393-2.415,12.6,12.6,0,0,0-3.444-3.216,38.353,38.353,0,0,0-4.168-2.266c-1.211-.595-2.462-1.21-3.622-1.917a14.83,14.83,0,0,1-3.193-2.533,39.763,39.763,0,0,0-4.51-4.487,52.95,52.95,0,0,0-5.006-3.756C23.754,47.473,20,45.445,16.36,43.484c-1.166-.629-2.372-1.28-3.553-1.932A16.449,16.449,0,0,1,9.965,39.58a22.175,22.175,0,0,0-2.1-1.551,6.214,6.214,0,0,0-2.278-.918Zm4.745-8.362a6.21,6.21,0,0,0-1.644.448c-.335.164-.524.357-.562.574-.133.76,1.574,1.708,2.945,2.47l.006,0,.44.246c1.063.635,2.129,1.307,3.159,1.956a68.456,68.456,0,0,0,7.256,4.169,46.87,46.87,0,0,1,7.808,4.465,37.868,37.868,0,0,1,6.662,6.029c.5.562.8.781,1.079.781.322,0,.627-.314,1.046-.856a28.577,28.577,0,0,1,3.317-4.241c1.219-1.418,2.6-3.025,3.613-4.4,1.16-1.569,1.676-2.609,1.579-3.181a.546.546,0,0,0-.273-.4,108.39,108.39,0,0,1-15.922-3.83c-3.282-.968-6.677-1.97-10.074-2.746-1.829-.418-3.513-.739-5.149-.982a50.037,50.037,0,0,0-5.286-.512ZM91.921,6.215h0a36.368,36.368,0,0,0-7.335,1.041c-2.806.617-5.831,1.424-8.757,2.2-2.444.652-4.752,1.267-6.773,1.731-5.809,1.4-12.11,3.129-19.263,5.271-6.376,1.91-12.823,3.967-19.058,5.957h-.006c-3.411,1.089-6.938,2.214-10.41,3.3a1.737,1.737,0,0,0,1.831.95l.079,0c2.5.211,4.885.524,7.078.932a44.422,44.422,0,0,1,6.816,1.784,3.1,3.1,0,0,0,1.6.972,7.42,7.42,0,0,0,1.765.149h0l.25,0a37.4,37.4,0,0,1,4.347.755,30.56,30.56,0,0,0,5.414.825A210.146,210.146,0,0,1,70.829,35.9l.023,0c.491.168.916.326,1.29.465a6.265,6.265,0,0,0,1.925.536c.953,0,1.5-.842,2.945-3.449a54.893,54.893,0,0,1,9.829-13.124c1.766-1.722,3.288-3.305,4.521-4.7A34.571,34.571,0,0,0,94.2,12.024,10.462,10.462,0,0,0,95.541,9.4a2.66,2.66,0,0,0,.033-1.765,2.009,2.009,0,0,0-1.266-1.089,7.168,7.168,0,0,0-2.387-.328Z" transform="translate(0 0)"/></g></g></svg>