<svg xmlns="http://www.w3.org/2000/svg" width="302.027" height="230.465" viewBox="0 0 302.027 230.465"><g transform="translate(22.345 6.301)"><g transform="translate(0 106.779)"><path d="M45.672,0a12.925,12.925,0,0,0-4.592,1.174,41.844,41.844,0,0,0-5.53,2.847,48.945,48.945,0,0,0-5.079,3.5,17.418,17.418,0,0,0-3.238,3.146c-.231.329-.462.667-.686.993l0,0a28.889,28.889,0,0,1-2.573,3.39,10.009,10.009,0,0,1-3.493,2.513c-1.462,1.732-2.98,3.454-4.448,5.118A115.89,115.89,0,0,0,4.594,37.15,14.616,14.616,0,0,1,2.588,39.86a16.133,16.133,0,0,0-1.961,2.6A4.266,4.266,0,0,0,.07,45.406C.235,45.913.36,46.466.48,47a10.157,10.157,0,0,0,.868,2.683,3.337,3.337,0,0,0,2.209,1.682C21.493,57.071,39.75,62.741,57.405,68.225c29.011,9.01,59.01,18.327,88.387,28.05a13.714,13.714,0,0,0,3.363.428c7.931,0,14.311-7.224,20.482-14.21,1.879-2.127,3.822-4.327,5.746-6.237a31.547,31.547,0,0,1,5.882-4.775,89.686,89.686,0,0,0,8.784-7.269c2.334-2.372,3.281-4.269,2.977-5.972-.488-2.739-4.286-5.122-11.954-7.5-10.458-4.793-21.581-9.6-33.061-14.28-10.6-4.324-21.93-8.716-33.67-13.054C94.432,16.051,72.807,8.627,46.285.043A4.076,4.076,0,0,0,45.672,0ZM69.935,40.549h0a3.052,3.052,0,0,0,2.211-.653,1.7,1.7,0,0,0,.448-1.272c-4.751-5.176-13.518-8.1-22-10.919A97.024,97.024,0,0,1,36.781,22.36a6.233,6.233,0,0,1-2.086-.918,1.989,1.989,0,0,1-.811-1.163,2.176,2.176,0,0,1,.172-1.295,5.717,5.717,0,0,1,.864-1.364,20.218,20.218,0,0,1,2.745-2.608,30.125,30.125,0,0,0,2.7-2.051c1.852-1.52,3.6-2.956,5.6-2.956a5.749,5.749,0,0,1,3.7,1.605,200.611,200.611,0,0,0,22.487,8.158c6.161,1.96,12.531,3.987,18.629,6.489,6.007,2.136,12.124,4.267,18.04,6.329,10.691,3.725,21.746,7.577,32.537,11.588,12.1,4.5,22.581,8.722,32.035,12.914,3.985,1.385,5.829,2.524,5.978,3.694.076.594-.28,1.221-1.121,1.972a30.089,30.089,0,0,1-3.138,2.266c-2.824,1.882-6.339,4.224-8.727,7.7-4.812-2.3-10-4.588-14.988-6.627-5.716-2.335-11.117-4.32-16.053-5.9a2.141,2.141,0,0,0-.72,2.056c.21.936,1.1,1.966,2.633,3.061a35.066,35.066,0,0,0,5.5,3.036c4.272,1.968,9.482,3.807,13.287,5.15,2.513.887,4.5,1.587,5.4,2.03a1.531,1.531,0,0,1,.862.361.788.788,0,0,1,.223.648,2.909,2.909,0,0,1-.719,1.448,9.694,9.694,0,0,1-1.619,1.555,7.342,7.342,0,0,1-3.854,1.748,1.208,1.208,0,0,1-1.306-.953,33.393,33.393,0,0,0-4.423-2.8,48.853,48.853,0,0,0-4.82-2.223c-3.315-1.332-6.86-2.426-10.287-3.483A109.75,109.75,0,0,1,123.468,67.6c-13.8-4.527-27.588-9.834-40.919-14.966C70.38,47.948,57.8,43.1,45.234,38.865A164.315,164.315,0,0,1,29.6,32.92c-.405-.179-.774-.34-1.131-.5l-.015-.007c-2.4-1.049-3.5-1.527-3.6-2.131-.089-.519.572-1.136,1.772-2.257.512-.478,1.149-1.073,1.865-1.791a2.865,2.865,0,0,1,2.043-1.011,3.708,3.708,0,0,1,1.578.42,93.6,93.6,0,0,1,9.448,4.166l0,0c4.623,2.181,10.377,4.9,15.595,7.026C63.262,39.336,67.444,40.548,69.935,40.549Zm80.5,46.743h0a1.86,1.86,0,0,1-1.054-.278c-7.72-2.061-16.093-4.537-25.6-7.569-8.472-2.7-17.041-5.589-25.328-8.38h0C82.258,65.61,65.516,59.971,48.729,55.439c-9.254-2.6-18.5-5.827-27.451-8.944l-.011,0c-2.579-.9-5.246-1.828-7.868-2.727a.763.763,0,0,1-.308-.741,5.868,5.868,0,0,1,1.222-2.531,31.4,31.4,0,0,1,2.627-3.165A28.089,28.089,0,0,1,21.731,33c5.04,2.683,10.317,5.353,15.684,7.937,5.131,2.47,10.51,4.942,15.989,7.346C63.594,52.749,74.287,57.073,86.093,61.5c22.443,8.408,45.3,15.8,66.784,22.646.654.31.942.731.832,1.218-.211.939-1.9,1.932-3.279,1.932Z" transform="translate(193.082 96.703) rotate(180)" fill="#3bc5ff"/></g><path d="M39,0A9.658,9.658,0,0,0,36.49.308a7,7,0,0,0-2.184,1A107.815,107.815,0,0,0,25.541,13.8a85.484,85.484,0,0,0-6.687,13.721,29.283,29.283,0,0,1-3.323,6.8c-1.379,2.143-2.968,4.176-4.477,6.074-1.435,1.955-2.65,3.7-3.716,5.329A68.114,68.114,0,0,0,3.869,51.6a40.446,40.446,0,0,0-2.617,6.133A22.884,22.884,0,0,0,.091,63.831c-.2,1.976-.08,3.045.388,3.576.412.469,1.083.488,1.932.512a8.2,8.2,0,0,1,3.025.521,73.2,73.2,0,0,1,7.376,1.5c2.284.581,4.636,1.278,7.191,2.132,4.747,1.586,9.494,3.488,14.085,5.326,5.254,2.1,10.685,4.28,16.165,6,6.506,2.3,13.712,4.482,22.029,6.668C79.7,92.016,87.3,93.789,94.643,95.5c6.439,1.5,13.1,3.056,19.61,4.723a20.211,20.211,0,0,0,5.3.8,12.263,12.263,0,0,0,2.96-.344,10.016,10.016,0,0,0,2.473-.975,11.645,11.645,0,0,0,3.767-3.5,25.4,25.4,0,0,0,2.667-4.978c.769-1.83,1.463-3.831,2.134-5.767a65.316,65.316,0,0,1,3.471-8.672,151.268,151.268,0,0,0,6.637-18.914c1-3.319,2.037-6.751,3.179-10.084a13.4,13.4,0,0,0,1-5.852A5.266,5.266,0,0,0,146.9,39.4a5.7,5.7,0,0,0-2.479-1.863c-8.117-3.089-16.252-6.567-24.12-9.93-8.584-3.67-17.461-7.465-26.34-10.766-4.78-1.777-9.18-3.273-13.45-4.574-4.793-1.46-9.3-2.639-13.786-3.6a23.726,23.726,0,0,1-6.044-1.435C58.5,6.468,56.149,5.466,53.871,4.5,48.675,2.286,43.3,0,39,0Zm78.481,91.28h0a1.278,1.278,0,0,1-.765-.267c-18.505-4.445-35.339-8.991-51.463-13.9-8.641-2.63-17.158-5.395-25.315-8.218-8.517-2.948-16.932-6.06-25.013-9.25a5.286,5.286,0,0,1-2.024-.5,1.923,1.923,0,0,1-.948-1.01,3.364,3.364,0,0,1,.3-2.47,15.954,15.954,0,0,1,1.922-3.111,76.772,76.772,0,0,1,5.679-6.386,38.469,38.469,0,0,0,2.824-3.116,20.052,20.052,0,0,0,3.743-5.291,60.1,60.1,0,0,0,2.506-5.977c.387-1.024.787-2.084,1.207-3.109a52.8,52.8,0,0,1,4.4-8.593,53.435,53.435,0,0,0,4.335-8.435c.48-1.39.947-1.907,1.724-1.907a4.645,4.645,0,0,1,1.692.466,105.318,105.318,0,0,0,13.645,4.921c4.635,1.357,9.414,2.52,14.036,3.644C75.022,20,80.25,21.275,85.3,22.8c4.667,1.829,9.49,3.681,14.154,5.473h0c12.257,4.709,24.932,9.578,36.674,14.726-.821,1.607-2.314,6.673-4.2,13.087-2.1,7.135-4.719,16.016-7.29,23.008a63.365,63.365,0,0,1-3.779,8.712,12.971,12.971,0,0,1-1.764,2.548,2.41,2.41,0,0,1-1.619.92Z" transform="translate(224.038 127.459) rotate(180)" fill="#ffc43c"/><path d="M14.857,11.587c5.661.9,17.774-4.364,9.584-9.906C16.869.836,8.98-1.142,1.433.882-.425,1.415-.206,3.466.577,4.863c.382,7.167,9.331,5.463,14.28,6.724" transform="translate(249.166 85.085)" fill="#ffc43c"/><path d="M8.424.095C4.054-.7-2.441,3.676.941,6.912,7.468,8.7,23.278,26.73,23.863,10.98,20.252,5.928,14.845.675,8.424.095" transform="translate(233.596 127.763)" fill="#ffc43c"/><path d="M17.715,17.906c-1.3-5.8-5.135-11.163-9.278-15.4C4-2.761-3,.985,1.4,7.168,5.32,11.6,13.35,32.466,17.715,17.906" transform="translate(215.204 166.149)" fill="#ffc43c"/><path d="M10.459,9.834c4.2,1.021,15.068-2.9,11.438-8-9.127-6.925-36.845,7.989-11.438,8" transform="translate(257.054 30.481)" fill="#ffc43c"/><path d="M16.528,4.7C13.288-7.827,4.514,8.147,1.221,12.744c-2.939,2.821-.027,5.116,3,5.062,5.817-1.882,12.15-6.477,12.305-13.11" transform="translate(228.963 0)" fill="#ffc43c"/><path d="M8.11,9.211C8.235,6.121,7.784-.758,3.44.068,1.839.424.1.648,0,2.832c.214,4.433.983,8.849,1.4,13.273,3.752,8.08,7.5-2.759,6.715-6.894" transform="translate(173.903 205.143)" fill="#ffc43c"/></g><g transform="translate(0 0)"><g transform="translate(0)"><path d="M103.29,0h0A16.508,16.508,0,0,0,98.7,1.833a22.006,22.006,0,0,0-3.89,2.917A62.548,62.548,0,0,0,88.19,12.4c-1.34,1.725-2.726,3.509-4.176,5.138A30.073,30.073,0,0,1,79.326,21.9c-3.587,3.248-6.938,6.877-10.178,10.386l0,0c-2.53,2.74-5.146,5.574-7.855,8.2a68.782,68.782,0,0,1-8.679,7.27,77.385,77.385,0,0,0-7.045,8.576c-2.047,2.864-4.043,5.99-6.1,9.556-3.819,6.616-7.245,13.724-10.558,20.6-3.077,6.384-6.26,12.986-9.67,18.981a20.158,20.158,0,0,0-2.8,3.086,25.474,25.474,0,0,0-2.115,3.428,64.364,64.364,0,0,0-3.1,7.442,72.03,72.03,0,0,1-2.788,6.837A50.384,50.384,0,0,0,1.166,141.73,35.622,35.622,0,0,0,0,150.061a32.442,32.442,0,0,0,1.011,8.592c.193.863,1.456.93,1.838.93a2.98,2.98,0,0,0,1.272-.241,3.294,3.294,0,0,1,1.817-.65,4.5,4.5,0,0,1,2.2.817,11.215,11.215,0,0,0,1.789.879,7.61,7.61,0,0,0-2.2.466c-.469.2-.733.469-.785.784-.085.512.387,1.181,1.4,1.989a27.989,27.989,0,0,0,3.944,2.479c3.209,1.744,7.358,3.619,10.691,5.125a49.063,49.063,0,0,1,6.3,3.09l2.648,1.012c16.383,6.262,33.323,12.737,50.25,18.581,9.12,3.149,17.474,5.856,25.541,8.277,9.067,2.721,17.531,5.009,25.874,7,6.428,1.32,11.588,2.587,15.734,3.606,5.892,1.447,9.783,2.4,12.687,2.4a7.666,7.666,0,0,0,3.786-.837,8.289,8.289,0,0,0,2.864-2.782c1.762-2.594,3.386-6.746,5.843-13.031.923-2.36,1.968-5.034,3.18-8.03,3.636-7.676,6.657-15.762,9.579-23.582l0-.008c1.777-4.757,3.615-9.676,5.573-14.452,2.2-5.36,4.315-9.969,6.476-14.091,1.392-2.979,2.947-5.963,4.451-8.849v0c1.8-3.447,3.653-7.011,5.253-10.6a63.525,63.525,0,0,0,3.889-11.121c.208-1.085,1.034-1.293,1.908-1.512a3.015,3.015,0,0,0,1.888-1,129.043,129.043,0,0,1,11.236-7.787h0c3.389-2.174,6.894-4.423,10.165-6.944,1.256-1.328,5.181-3.874,10.15-7.1h0c5.395-3.5,12.107-7.855,17.2-11.888a41.706,41.706,0,0,0,6.178-5.733,10.809,10.809,0,0,0,1.618-2.491,3.446,3.446,0,0,0,.308-2.117,2.873,2.873,0,0,0-1.551-1.834,11.307,11.307,0,0,0-3.917-1.1c-22.275-7.423-44.725-15.973-66.435-24.24l-.006,0c-16.018-6.1-32.582-12.408-48.951-18.216-8.813-3.127-16.868-5.864-24.625-8.367C119.384,4.667,111.272,2.221,103.29,0ZM209.167,98.944c-8.164-2.7-16.457-5.476-24.476-8.164l-.013,0h0c-17.459-5.851-35.512-11.9-53.38-17.491-9.62-3.01-18.418-5.649-26.9-8.069C94.877,62.5,86,60.123,77.258,57.959a39.43,39.43,0,0,0-5.545-1.387,59.668,59.668,0,0,1-7.5-1.886c-2.526-.9-3.835-1.937-4-3.155,10.213-9.761,20.263-20.024,29.983-29.949l0,0c4.259-4.349,8.662-8.845,13.021-13.24a10.393,10.393,0,0,1,2.064-2.016,4.025,4.025,0,0,1,2.332-.8,4.772,4.772,0,0,1,2.5.8c16.315,6.077,33.14,12.139,47.63,17.343C171.724,29.14,186.294,34.153,200.384,39c10.2,3.511,20.751,7.141,30.992,10.914,11.483,4.231,21.355,8.2,30.18,12.13-7.924,5.2-15.888,11.1-23.591,16.8-4.71,3.488-9.58,7.1-14.376,10.493-5.375,3.808-10.093,6.95-14.423,9.6ZM160.561,208.828a17.3,17.3,0,0,1-4.381-.987,70.851,70.851,0,0,0-10.455-2.447c-11.427-3.058-22.871-6.347-34.015-9.778-11.309-3.481-22.62-7.2-33.62-11.063-9.6-3.5-19.5-6.67-29.066-9.735-3.843-1.231-7.817-2.5-11.72-3.782a36.4,36.4,0,0,0-3.841-1.292c-2.528-.749-5.141-1.523-6.969-3.136a4.5,4.5,0,0,0-2.185-2.26l-.005,0c-.126-.079-.257-.16-.384-.242-3.454-2.226-7-4.431-10.438-6.563h0c-1.389-.863-2.964-1.84-4.474-2.784a1.518,1.518,0,0,1-.541-1.7,7.654,7.654,0,0,1,.979-1.94,6.7,6.7,0,0,0,.9-1.793c4.555-10.01,8.682-20.4,12.672-30.45v0c3.942-9.926,8.018-20.191,12.5-30.066,2.412-5.315,4.747-10.1,7.138-14.624,2.683-5.078,5.367-9.7,8.206-14.139.149-.21.3-.455.468-.714.705-1.11,1.584-2.493,2.777-2.493a1.885,1.885,0,0,1,.918.261,49.409,49.409,0,0,0,11.617,5.032c9.2,2.087,19.186,4.675,30.515,7.911,10.1,2.886,20.316,6.009,30.194,9.029,3.806,1.164,7.743,2.367,11.625,3.543,11.559,3.23,20.4,5.806,28.669,8.352,10.39,3.2,19.652,6.295,28.315,9.462a15.3,15.3,0,0,0,4.519,1.361c2.834.571,5.764,1.162,6.438,3.421a36.35,36.35,0,0,1-1.262,5.569,52.341,52.341,0,0,1-2,5.393c-1.526,3.546-3.4,7.042-5.206,10.424-1.247,2.331-2.536,4.74-3.677,7.1-5.526,10.841-10.136,22.3-14.6,33.383-3.9,9.685-7.925,19.7-12.55,29.262a78.358,78.358,0,0,1-3.708,9.9C162.937,208.1,162,208.828,160.561,208.828Z" transform="translate(273.634 215.195) rotate(180)"/></g><path d="M15.67,22.849C15.211,17.733,7.189-3.956.6.633-2.443,5.792,6.982,18.915,8.644,24.987c2.884,7.107,5.892,2.688,7.027-2.138" transform="translate(227.686 197.838)"/><path d="M9.417,9.846C13.473,9.795,38.6,6.644,28.771.208a71.364,71.364,0,0,0-27.309,3.5c-5.12,4.357,4.592,6.53,7.955,6.138" transform="translate(19.568 75.705)"/><path d="M28.885,13.566C46.219,13.037,2.1-3.519,1.095.682-6.069,8.8,24.086,11.613,28.885,13.566" transform="translate(23.22 42.924)"/><path d="M23.123,15.453C36.251,13.591,2.912-4.174.058.912-1.2,6.2,18.4,13.919,23.123,15.453" transform="translate(272.474 118.202)"/><path d="M20.107,18C21.036,13.5,1.846-7.291,0,2.67,2.218,5.462,18.345,26.766,20.107,18" transform="translate(257.319 164.642)"/><path d="M1.526,7.773C5.416,6.112,16.457,6.567,17.92,2.327,16.912-4.016-6.036,4.239,1.526,7.773" transform="translate(9.02 107.378)"/><path d="M43.405,0h0a11.2,11.2,0,0,0-2.624.507,11.812,11.812,0,0,0-2.355,1.062A16.712,16.712,0,0,0,34.392,5,55.866,55.866,0,0,0,28.1,14.614a71.18,71.18,0,0,1-3.72,6.15,62.618,62.618,0,0,0-4.827,6.779c-1.37,2.207-2.674,4.571-3.988,7.226C13.125,39.7,11.02,44.925,8.984,49.975A176.719,176.719,0,0,1,.555,68.742,2.271,2.271,0,0,0,.1,70.894a4.806,4.806,0,0,0,1.272,1.917,15.349,15.349,0,0,0,2.513,1.961,53.278,53.278,0,0,0,7.69,3.91c5.957,2.554,12.976,4.9,18.615,6.78,3.885,1.3,6.953,2.321,8.223,2.943,11.648,3,23.289,6.793,34.547,10.46,8.181,2.665,16.64,5.421,25.031,7.849,4.517,1.307,8.654,2.418,12.65,3.4,4.484,1.1,8.676,2,12.814,2.765a7.3,7.3,0,0,0,1.269.117,5.382,5.382,0,0,0,3.282-1.058,8.743,8.743,0,0,0,2.35-2.778,40.813,40.813,0,0,0,3.124-8.35c.535-1.8,1.087-3.656,1.717-5.285a14.493,14.493,0,0,1,2.246-4.126c3.12-6.106,6.775-13.369,10.219-20.946,3.536-7.777,6.379-14.85,8.691-21.626a10.971,10.971,0,0,1,.845-2.035c.787-1.594,1.6-3.243.332-4.784a9.1,9.1,0,0,0-2.072-2.175,10.409,10.409,0,0,0-2.467-1.354,28.328,28.328,0,0,0-5.626-1.344c-2.726-.46-5.545-.936-7.9-2.453-7.568-3.17-15.546-6.371-23.715-9.514-7.655-2.945-15.74-5.94-24.031-8.9C77.04,11.021,61.236,5.7,43.405,0Zm78.339,105.622a11.16,11.16,0,0,1-1.975-.257,14.729,14.729,0,0,0-1.5-.232c-14.617-3.539-29.238-8.016-43.378-12.346C60.231,88.3,45.07,83.655,29.888,80.05c-4.573-1.345-9.165-2.918-13.606-4.439-3.207-1.1-6.523-2.234-9.807-3.276A1.627,1.627,0,0,1,5.546,71.2c-.144-.986.968-2.156,2.043-3.287a7.108,7.108,0,0,0,1.951-2.7c1.257-2.642,2.509-5.333,3.721-7.935l0,0c2.86-6.144,5.817-12.5,9.006-18.574,1.716-3.27,3.363-6.207,5.035-8.978,1.876-3.109,3.735-5.933,5.686-8.634a31.1,31.1,0,0,0,3.521-5.393,54.957,54.957,0,0,1,4.1-6.461C42.286,7.116,43.8,6.087,45.23,6.087a3.379,3.379,0,0,1,1.919.643C59.871,11.9,73.351,16.4,86.388,20.748c9.929,3.313,20.2,6.74,30.07,10.442,5.315,1.993,10.094,3.9,14.609,5.843,5.068,2.176,9.678,4.331,14.093,6.587a2.181,2.181,0,0,0,.279,1.56.623.623,0,0,0,.48.19,4.215,4.215,0,0,0,1.513-.523l.126-.059A4.712,4.712,0,0,1,149.4,44.2a1.233,1.233,0,0,1,.9.351,56.646,56.646,0,0,1-1.94,6.279c-.726,1.967-1.579,4.011-2.609,6.25-1.911,4.156-4.148,8.352-6.311,12.409-2.266,4.25-4.608,8.644-6.54,12.933l-.616,1.265c-1.543,3.169-3.138,6.446-4.566,9.731a83.48,83.48,0,0,0-3.715,10.1,2.459,2.459,0,0,1-.794,1.677A2.273,2.273,0,0,1,121.744,105.622Z" transform="translate(248.682 139.485) rotate(180)"/><path d="M14.4,0A4.889,4.889,0,0,0,12.37.43a6.747,6.747,0,0,0-1.843,1.257,21.073,21.073,0,0,0-3.541,4.8A36.939,36.939,0,0,1,4.381,10,34.572,34.572,0,0,0,1.57,13.846,10.819,10.819,0,0,0,0,18.234c4.32,7.6,14.5,11.491,23.486,14.921,2.42.924,4.706,1.8,6.8,2.709,1.976,1.133,5.066,1.5,8.054,1.857a42.172,42.172,0,0,1,5.107.808,9.458,9.458,0,0,1,2,.712,3.83,3.83,0,0,1,1.366,1.086,1.37,1.37,0,0,0,.9.764,4.353,4.353,0,0,0,1.39.19c.081,0,.166,0,.251,0a31.714,31.714,0,0,0,5.258-1.037,83.4,83.4,0,0,0,7.967-2.526,45.7,45.7,0,0,0,7.588-3.538c2.315-1.412,3.7-2.781,4.122-4.071a2.511,2.511,0,0,0-.031-1.716A4.168,4.168,0,0,0,72.9,26.7c-8.819-4.759-18.246-8.78-27.364-12.669C37.284,10.508,28.748,6.867,20.657,2.679A18.035,18.035,0,0,0,17.231.655,7.2,7.2,0,0,0,14.4,0ZM48.16,34.983h0a22.31,22.31,0,0,1-7.154-1.321A88.3,88.3,0,0,1,31.67,29.73l-1.028-.458c-5.79-2.579-11.777-5.245-17.167-8.813-.563-.373-1.051-.682-1.482-.955C9.3,17.8,9.3,17.8,11.1,14.905c.2-.328.436-.7.687-1.11a9.458,9.458,0,0,0,1.429-2.429c.788-1.661,1.6-3.379,3.048-3.379a2.273,2.273,0,0,1,.848.18c1.549.668,3.125,1.342,4.65,1.993l.014.006c4.877,2.084,9.919,4.239,14.8,6.519a95.99,95.99,0,0,0,13.716,5.9c2.563.948,5.212,1.929,7.722,3A52.726,52.726,0,0,1,65.2,29.22a86.636,86.636,0,0,1-9.664,4.331,27.2,27.2,0,0,1-3.825,1.075,18.188,18.188,0,0,1-3.545.357Z" transform="translate(142.739 181.895) rotate(180)"/><path d="M22,0c-1.539,0-3.154.04-4.8.118,0,.087,0,.174,0,.259-.5,0-.964-.005-1.394-.005a60.766,60.766,0,0,0-10.831.687c-2.44.471-3.885,1.2-4.547,2.3C-.872,5.508.951,8.981,3.71,14.238c1.523,2.9,3.249,6.19,4.942,10.14a32.132,32.132,0,0,0,6.865,8.406,37.354,37.354,0,0,0,8.995,5.761,50.844,50.844,0,0,0,21.114,4.372c.922,0,1.855-.023,2.774-.068.994.077,2.012.116,3.025.116a43.9,43.9,0,0,0,5.94-.414,58.991,58.991,0,0,0,5.807-1.1c3.757-.9,7.412-2.074,11.459-3.409a7.686,7.686,0,0,0,2.485-1.5,4.7,4.7,0,0,0,1.246-1.923c1.139-3.386-1.659-7.992-3.907-11.693-.588-.968-1.144-1.883-1.58-2.7a20.735,20.735,0,0,0-3.9-4.905,26.2,26.2,0,0,0-4.893-3.559A71.29,71.29,0,0,0,52.693,6.9c-2.206-.794-4.486-1.614-6.63-2.528C39.145,1.432,31.274,0,22,0Zm3.136,31.047h0a1.4,1.4,0,0,1-.226-.019A21.494,21.494,0,0,1,19.8,27.714a29.371,29.371,0,0,1-4.1-4.405A80.1,80.1,0,0,1,9.282,12.855c-.73-1.336-1.485-2.717-2.239-4.026a1.382,1.382,0,0,1,.181-1.214c.364-.456,1.126-.668,2.4-.668.775,0,1.669.081,2.388.145L12.1,7.1c.783.07,1.522.137,2.145.137a3.873,3.873,0,0,0,1.074-.115q0-.037,0-.074V7.041q0-.032,0-.065c3,.14,5.516.238,7.541.316,6.138.236,8.434.325,8.754,1.015.186.4-.3,1.026-1.045,1.971a24.441,24.441,0,0,0-2.6,3.879,19.4,19.4,0,0,0-1.238,2.921,21.254,21.254,0,0,0-.855,3.707,14.35,14.35,0,0,0,.173,3.885c.282,2.42.6,5.163-.2,6.067a.909.909,0,0,1-.707.31Zm28.928,4.931c-.768-.105-1.24-.365-1.4-.772-.3-.766.531-1.933,1.185-2.743a8.31,8.31,0,0,0,2.412-5.607,29.435,29.435,0,0,0-.308-6.075c-.238-1.923-.426-3.442.051-3.982a.648.648,0,0,1,.515-.215,1.232,1.232,0,0,1,.216.02,14.532,14.532,0,0,1,4.2,1.869,19.151,19.151,0,0,1,3.438,2.881,52.316,52.316,0,0,1,5.507,7.3l.515.77a1.219,1.219,0,0,1,.232,1.225,3.768,3.768,0,0,1-1.962,1.637A23.156,23.156,0,0,1,64.9,33.64c-2.86.811-6.224,1.443-8.45,1.861C55.369,35.7,54.515,35.864,54.065,35.978Z" transform="translate(204.408 101.076) rotate(180)"/></g></svg>