<svg xmlns="http://www.w3.org/2000/svg" width="95.479" height="90.919" viewBox="0 0 95.479 90.919"><g transform="translate(-0.003 -155.069)"><g transform="translate(0.003 155.069)"><path d="M92.7,90.919h0c-.062,0-.127,0-.191-.005a115.373,115.373,0,0,0-12.364-.685c-.338,0-.68,0-1.019,0-3.042-.064-6.243-.094-10.073-.094-3.2,0-6.462.021-9.613.042h-.007c-3.151.021-6.409.042-9.614.042-1.191-.013-2.443-.02-3.827-.02-2.26,0-4.562.018-6.787.035s-4.551.035-6.836.035a158.293,158.293,0,0,1-24.537-1.5,1.507,1.507,0,0,1-.388.056.887.887,0,0,1-.653-.264c-.619-.624-.608-2.26-.6-3.7a7.981,7.981,0,0,0-.177-2.38c-.083-1.251-.181-2.524-.276-3.754-.229-2.954-.465-6.005-.5-9.013.151-7.868-.122-15.862-.386-23.592-.2-5.859-.407-11.916-.428-17.879-.156-1.912-.187-3.887-.218-5.8A46.957,46.957,0,0,0,3.195,11.637a2.032,2.032,0,0,1,.263-1.69,1.277,1.277,0,0,1,1.023-.436,2.639,2.639,0,0,1,1.782.806,2.566,2.566,0,0,1,.761,1.838c.474,4.819.823,6.124,2.371,6.124a11.675,11.675,0,0,0,2.6-.517c.609-.161,1.3-.342,2.087-.524a40.917,40.917,0,0,1,9.519-1.04c.282,0,.571,0,.858.007,4.364-.089,8.817-.412,13.124-.724,5.044-.366,10.259-.745,15.332-.745,1.124,0,2.225.019,3.274.056a76.843,76.843,0,0,1,9.937-.533c2.036,0,4.126.042,6.146.083h.009c2.031.041,4.13.084,6.186.084,1.9,0,3.571-.037,5.107-.112.484-1.174-.083-5.206-.5-8.151-.137-.977-.256-1.821-.307-2.365-3.863.11-7.8.331-11.611.545-1.718.1-3.491.2-5.232.284-5.357.253-10.8.535-16.063.808C35.877,6.161,21.42,6.91,7.183,7.2A7.723,7.723,0,0,0,6,7.121c-.411,0-.846.019-1.267.038H4.7c-.432.019-.879.039-1.321.039A4.423,4.423,0,0,1,.077,6.187a.565.565,0,0,1-.033-.5c.159-.331.721-.463,1.131-.56.077-.018.149-.035.212-.052,15.08-1.829,30.535-2.551,45.481-3.248,5.8-.271,11.8-.551,17.688-.891C67.84.776,71.179.608,74.408.447h.011L79.391.2c.382-.019.776-.049,1.194-.082C81.327.059,82.094,0,82.846,0c1.945,0,4.258.357,4.887,3.14C90.34,19.7,91.529,36.579,92.68,52.9c.762,10.809,1.55,21.986,2.742,32.991.079.673.249,2.968-.886,4.244A2.353,2.353,0,0,1,92.7,90.919Zm-51.284-3.95c11.953,0,27.613.1,42.742.876l.5.01c1.235.025,2.3.046,3.2.046,2.3,0,3.65-.129,4.22-.811.6-.722.366-2.045-.065-4.448a69.817,69.817,0,0,1-1.178-9.913c-.34-2.5-.615-5.064-.882-7.539-.378-3.509-.769-7.137-1.348-10.673-.054-.286-.1-.546-.142-.774-.3-1.644-.348-1.941-1.365-1.941-.242,0-.533.017-.9.039-.227.013-.483.029-.769.042-1.878.089-3.716.175-5.556.251-12.608.4-25.44,1.5-37.849,2.565-1.875.161-3.812.327-5.728.489a2.083,2.083,0,0,1-.912.174,7.966,7.966,0,0,1-1.172-.119c-.19-.029-.369-.056-.54-.075-.446.1-.914.224-1.411.358a14.216,14.216,0,0,1-3.619.658,4.354,4.354,0,0,1-2.136-.5.776.776,0,0,0,.348.087.761.761,0,0,0,.213-.031,1.944,1.944,0,0,0-.671-.122h-.006l-.015-.009.019.012a1.238,1.238,0,0,1-1.121.511,5.916,5.916,0,0,1-.735-.063h-.008a5.953,5.953,0,0,0-.717-.061,1.416,1.416,0,0,0-.682.142,55.151,55.151,0,0,1-7.978.9c-1.675.108-3.406.219-5.084.426-1.516.21-1.414,1.862-1.314,3.46a6.615,6.615,0,0,1-.08,2.2,162.92,162.92,0,0,0,.236,20.038c.068,1.273.137,2.59.2,3.884,5.085,0,10.384-.025,15.509-.047h.015C30.1,86.994,35.771,86.969,41.411,86.969ZM80.972,16.71c-3.144.073-6.339.112-9.429.149-6.911.084-14.055.171-21.079.642-6.8.6-13.733.844-20.437,1.082-6.935.246-14.1.5-21.135,1.145-.729.125-.923.365-.9,1.119.054,1.874.136,3.776.216,5.616.2,4.65.408,9.458.183,14.2a30.344,30.344,0,0,1,.108,4.985c-.068,3.752-.153,8.422.78,9.372a.531.531,0,0,0,.384.176.558.558,0,0,0,.11-.011,8.01,8.01,0,0,1,1.852-.431c1.416-.22,2.881-.448,3.256-1.892a54.991,54.991,0,0,1,3.551-8.888,37.109,37.109,0,0,1,5.308-7.849c3.582-4.125,7.594-6.4,11.3-6.4a10.222,10.222,0,0,1,7.374,3.424c2.471,2.277,4.349,4.059,5.857,5.49,3.241,3.075,4.453,4.225,5.187,4.225.453,0,.713-.437,1.144-1.162.842-1.415,2.409-4.049,7.576-6.344a3.287,3.287,0,0,1,.809-.1c2.925,0,6.512,3.617,9.394,6.523a38.365,38.365,0,0,0,3.266,3.074c1.638,1.228,2.045,2.2,1.88,2.694-.1.306-.41.474-.869.474a5.044,5.044,0,0,1-2.744-1.2c-.77-.644-1.559-1.289-2.323-1.914-.963-.788-1.959-1.6-2.925-2.421a10.529,10.529,0,0,1-1.968-1.752c-1.134-1.173-2.307-2.386-3.527-2.386a2.192,2.192,0,0,0-1.6.79,15.429,15.429,0,0,0-2.683,3.178c-1.512,2.126-3.076,4.324-5.27,4.324a4.23,4.23,0,0,1-2.019-.575,34.432,34.432,0,0,1-6.73-5.913c-3-3.129-6.1-6.364-10.282-7.4-8.6,1.6-12.806,10.16-16.516,17.71-.4.813-.777,1.582-1.161,2.343-.17.35-.2.613-.1.782s.317.236.65.236l.108,0C38.656,52.449,59.283,51.189,79.79,51c4.332-.037,6.684-.244,7.522-1.278.694-.856.412-2.252-.056-4.566a50.158,50.158,0,0,1-1.088-8.028c-.574-4.132-.941-8.351-1.3-12.431-.19-2.182-.386-4.437-.612-6.654a1.775,1.775,0,0,0-.2-1.376.886.886,0,0,0-.713-.256,5.84,5.84,0,0,0-1.031.14l-.061.012a6.5,6.5,0,0,1-1.2.151Z" transform="translate(0 0)"/></g><path d="M.12.789C1.552-.313,2.687,1.848,4,.64A2.345,2.345,0,0,1,5.864.014c1.675.7-1.9,2.175-.52,3.115.562.627,1.919,1.043,1.732,2.038C6.281,6.18,4.947,4.45,4.114,4.1c-.948-.827-1.65.466-2.467.815C1.114,5.187-.292,5.3.054,4.334,1.387,2.719,2.279,2.293.12.789" transform="translate(72.227 161.668)"/><path d="M.01,2.151C-.213-.305,3.341-.676,4.42,1.131,5.972,3.987-.057,5.428.01,2.151" transform="translate(17.897 165.215)"/><path d="M2.5.043C5.119.121,2.974,5.53.81,3.624A2.029,2.029,0,0,1,2.5.043" transform="translate(11.448 165.215)"/><path d="M3.063,1.7C3.025,2.969,1.1,3.85.278,2.668-1.019.152,2.62-1.347,3.063,1.7" transform="translate(25.152 165.053)"/><path d="M8.474,12.575h0A6.627,6.627,0,0,1,7.8,12.54c-.217.016-.435.024-.65.024A8.222,8.222,0,0,1,5.5,12.4,7.6,7.6,0,0,1,4,11.926a7.075,7.075,0,0,1-1.321-.751,6.63,6.63,0,0,1-1.1-1A6.23,6.23,0,0,1,.293,7.869,6.643,6.643,0,0,1,.078,5.049,5.97,5.97,0,0,1,.122,2.872,3.486,3.486,0,0,1,.873,1.351,4.61,4.61,0,0,1,4.488,0,11.2,11.2,0,0,1,9,1.053,9.125,9.125,0,0,1,12.521,3.7a6.354,6.354,0,0,1,.9,1.486,5.6,5.6,0,0,1,.41,1.533,5.256,5.256,0,0,1-.477,2.9,5.147,5.147,0,0,1-1.887,2.124,5.294,5.294,0,0,1-1.376.615A5.856,5.856,0,0,1,8.474,12.575Zm-3.751-9.5a1.758,1.758,0,0,0-.756.154,1.328,1.328,0,0,0-.509.421,2.052,2.052,0,0,0-.347,1.134A4.241,4.241,0,0,0,3.325,6.2a5.3,5.3,0,0,0,1.3,2.153A3.108,3.108,0,0,0,6.8,9.334a2.73,2.73,0,0,0,.4-.029,4.154,4.154,0,0,0,1.828-.4,1.191,1.191,0,0,0,.653-.88,2.229,2.229,0,0,0-.359-1.373A7.169,7.169,0,0,0,8.158,5.179,8.932,8.932,0,0,0,5.125,3.1,2.806,2.806,0,0,0,4.723,3.072Z" transform="translate(64.328 176.822)"/><path d="M6.314,20.475A6.684,6.684,0,0,1,2.851,19.7a4.414,4.414,0,0,1-1.823-2.18,11.493,11.493,0,0,1-.737-3.367c-.126-1.3-.163-2.773-.2-4.336C.068,9.017.047,8.19.014,7.333a16.772,16.772,0,0,1,.08-2.58,5.988,5.988,0,0,1,.6-2.1A3.471,3.471,0,0,1,2.1,1.214,4.55,4.55,0,0,1,3.2.787a7.211,7.211,0,0,1,1.4-.2C5.617.535,6.645.429,7.734.317A45.42,45.42,0,0,1,12.332,0a16.168,16.168,0,0,1,2.6.19,10.7,10.7,0,0,1,2.477.7,2.487,2.487,0,0,0,1.916.713c.106,0,.217,0,.34-.01A1.262,1.262,0,0,1,20,1.542c.589,0,1.167.434,1.719,1.289A14.28,14.28,0,0,1,23.233,6.5a37.97,37.97,0,0,1,1.008,4.705c.5,3.261.566,6.156.167,7.039a.975.975,0,0,1-.6.628,2.55,2.55,0,0,1-.9.122c-.092,0-.186,0-.269,0h-.015l-.247,0h-.125c-.375-.015-.763-.023-1.155-.023a61.78,61.78,0,0,0-7.462.607c-.943.115-1.917.235-2.877.334A21.227,21.227,0,0,1,6.314,20.475ZM15.45,2.243h0a30.893,30.893,0,0,0-4.444.525c-1.573.252-3.531.566-5.833.807-.56.31-.9,1.3-1.027,3.027-.114,1.5-.059,3.335-.009,4.955a27.077,27.077,0,0,1-.024,3.713,5.391,5.391,0,0,0,.44,1.776,1.346,1.346,0,0,0,.5.537,1.569,1.569,0,0,0,.821.2,3.128,3.128,0,0,0,.467-.038c2.27-.172,4.574-.41,6.8-.64h0c1.4-.145,2.848-.294,4.273-.425l.007.107c.282-.018.57-.027.881-.027.463,0,.907.02,1.321.041l.1.005c.366.018.711.036,1.018.036a3.454,3.454,0,0,0,.911-.093.982.982,0,0,0,.576-.375,1.62,1.62,0,0,0,.156-1.142,10.441,10.441,0,0,0-.625-2.174c-.488-2.4-.871-4.054-1.242-5.372a14.97,14.97,0,0,0-1.264-3.308,5.113,5.113,0,0,0-.735-1.014,3.376,3.376,0,0,0-.854-.658,4.557,4.557,0,0,0-2.216-.462Z" transform="translate(59.169 213.419)"/><path d="M0,8.351C.587,5.294,2.329,2.022,5.347.824,8.5-.779,9.3,6.567,12.065,4.772c7.211-10.028,5.59.1,8.9-1.2,1.537-1.3,4.546-5.4,6.359-2.624.121,1.483,1.407,3.365.657,4.7-1.069.273-1.817-.909-2.254-1.719C23.961,2.9,21.4,9.288,18.561,6.269c-.835-.5-1.454-2.915-2.6-1.944-6.394,10.046-8.44-2.591-10.912.433C3.724,5.9,1.7,11.627,0,8.351" transform="translate(21.928 214.87)"/><path d="M17.076.112C18.689.4,22.42-.74,22.732,1.347c-.053.419-.353.65-1.076.684-7.13-.018-14.238.876-21.368.682C-2.46.309,15.33.334,17.074,0Z" transform="translate(25.474 227.606)"/><path d="M9.326,0C22.122.264,3.09,2.988.081,1.795-.944.144,8.027.05,9.326.012V0" transform="translate(28.054 233.571)"/></g></svg>